<svg xmlns="http://www.w3.org/2000/svg" x="0px" y="0px"
width="27" height="27"
viewBox="0 0 172 172"
style=" fill:#000000;"><g fill="none" fill-rule="nonzero" stroke="none" stroke-width="1" stroke-linecap="butt" stroke-linejoin="miter" stroke-miterlimit="10" stroke-dasharray="" stroke-dashoffset="0" font-family="none" font-weight="none" font-size="none" text-anchor="none" style="mix-blend-mode: normal"><path d="M0,172v-172h172v172z" fill="none"></path><g fill="#ffffff"><path d="M86,21.5c-35.56738,0 -64.5,28.93262 -64.5,64.5c0,35.56739 28.93262,64.5 64.5,64.5c35.56739,0 64.5,-28.93261 64.5,-64.5c0,-35.56738 -28.93261,-64.5 -64.5,-64.5zM86,32.25c13.62646,0 25.97217,5.12305 35.44141,13.4375c-1.00781,1.40674 -2.37256,3.10742 -4.53516,5.20703c-4.59815,4.45117 -11.94678,9.80518 -23.17969,13.94141c-7.60058,-14.04639 -15.0542,-24.60742 -19.98828,-31.24219c3.92627,-0.90283 8.04151,-1.34375 12.26172,-1.34375zM63.15625,37.28906c4.40918,5.77393 12.26172,16.48193 20.15625,30.73828c-21.85693,5.79492 -41.9082,6.52979 -49.88672,6.55078c3.56934,-16.60791 14.73926,-30.27636 29.73047,-37.28906zM128.83203,53.58203c6.55078,8.67139 10.62403,19.40039 10.91797,31.07422c-4.78711,-1.0708 -11.8418,-2.1206 -20.99609,-2.18359c-4.76611,-0.02099 -10.16211,0.31494 -15.95703,1.00781c-1.34375,-3.06543 -2.79248,-6.02588 -4.19922,-8.90234c12.05176,-4.61914 20.26123,-10.70801 25.69922,-15.95703c1.84766,-1.80566 3.29639,-3.46435 4.53516,-5.03906zM88.18359,77.76953c1.23877,2.49854 2.49854,5.06006 3.69531,7.72656c-22.96972,6.36182 -39.47266,25.84619 -46.52734,35.60938c-8.12549,-9.40625 -13.10156,-21.66797 -13.10156,-35.10547c0,-0.23096 0,-0.44092 0,-0.67187c7.26465,0.08398 30.36035,-0.41992 55.93359,-7.55859zM118.75391,93.05469c9.59521,0 16.22998,1.34375 20.15625,2.35156c-2.49854,14.31934 -10.58203,26.60205 -22.00391,34.60156c-2.1416,-12.84961 -5.66894,-25.06933 -9.91016,-36.28125c4.24121,-0.41992 8.25146,-0.67187 11.75781,-0.67187zM96.07813,95.57422c4.8291,12.26172 8.88135,25.72021 10.91797,39.97656c-6.4248,2.70849 -13.56347,4.19922 -20.99609,4.19922c-12.32471,0 -23.70459,-4.13623 -32.75391,-11.08594c5.52197,-7.55859 21.75195,-27.67285 42.83203,-33.08984z"></path></g></g></svg>