<svg xmlns="http://www.w3.org/2000/svg" width="30" viewBox="0 0 30 30" height="30" version="1.0"><defs><clipPath id="a"><path d="M 0.484375 0 L 29.515625 0 L 29.515625 29.03125 L 0.484375 29.03125 Z M 0.484375 0"/></clipPath><clipPath id="b"><path d="M 6.105469 2.386719 L 24.25 2.386719 L 24.25 26.339844 L 6.105469 26.339844 Z M 6.105469 2.386719"/></clipPath><clipPath id="c"><path d="M 15.179688 2.386719 C 13.8125 2.386719 12.703125 3.464844 12.703125 4.785156 C 12.703125 5.863281 13.4375 6.769531 14.445312 7.078125 L 14.445312 9.105469 C 14.035156 9.226562 13.667969 9.449219 13.382812 9.75 L 11.109375 8.476562 C 11.128906 8.351562 11.140625 8.21875 11.140625 8.089844 C 11.140625 6.765625 10.027344 5.691406 8.664062 5.691406 C 7.292969 5.691406 6.1875 6.769531 6.1875 8.089844 C 6.1875 9.167969 6.917969 10.074219 7.925781 10.382812 L 7.925781 12.210938 C 6.917969 12.515625 6.1875 13.425781 6.1875 14.503906 C 6.1875 15.578125 6.917969 16.484375 7.925781 16.792969 L 7.925781 18.621094 C 6.917969 18.925781 6.1875 19.835938 6.1875 20.914062 C 6.1875 22.242188 7.296875 23.3125 8.664062 23.3125 C 10.035156 23.3125 11.140625 22.234375 11.140625 20.914062 C 11.140625 19.835938 10.410156 18.929688 9.402344 18.621094 L 9.402344 16.792969 C 10.410156 16.492188 11.140625 15.578125 11.140625 14.503906 C 11.140625 13.425781 10.410156 12.519531 9.402344 12.210938 L 9.402344 10.382812 C 9.796875 10.261719 10.15625 10.046875 10.441406 9.765625 L 12.730469 11.042969 C 12.714844 11.160156 12.703125 11.277344 12.703125 11.394531 C 12.703125 12.722656 13.816406 13.792969 15.179688 13.792969 C 16.550781 13.792969 17.660156 12.71875 17.660156 11.394531 C 17.660156 10.320312 16.925781 9.414062 15.917969 9.105469 L 15.917969 7.078125 C 16.925781 6.773438 17.660156 5.863281 17.660156 4.785156 C 17.660156 3.460938 16.546875 2.386719 15.179688 2.386719 Z M 15.179688 26.339844 C 16.550781 26.339844 17.660156 25.261719 17.660156 23.941406 C 17.660156 22.863281 16.925781 21.957031 15.917969 21.648438 L 15.917969 19.625 C 16.328125 19.5 16.695312 19.277344 16.980469 18.980469 L 19.253906 20.253906 C 19.234375 20.375 19.222656 20.507812 19.222656 20.636719 C 19.222656 21.964844 20.335938 23.035156 21.699219 23.035156 C 23.070312 23.035156 24.175781 21.957031 24.175781 20.636719 C 24.175781 19.558594 23.445312 18.65625 22.4375 18.34375 L 22.4375 16.515625 C 23.445312 16.214844 24.175781 15.300781 24.175781 14.226562 C 24.175781 13.148438 23.445312 12.242188 22.4375 11.933594 L 22.4375 10.105469 C 23.445312 9.800781 24.175781 8.890625 24.175781 7.8125 C 24.175781 6.488281 23.066406 5.414062 21.699219 5.414062 C 20.328125 5.414062 19.222656 6.492188 19.222656 7.8125 C 19.222656 8.890625 19.953125 9.796875 20.960938 10.105469 L 20.960938 11.933594 C 19.953125 12.238281 19.222656 13.148438 19.222656 14.226562 C 19.222656 15.300781 19.953125 16.207031 20.960938 16.515625 L 20.960938 18.34375 C 20.566406 18.46875 20.207031 18.679688 19.921875 18.964844 L 17.632812 17.683594 C 17.648438 17.566406 17.660156 17.449219 17.660156 17.332031 C 17.660156 16.003906 16.546875 14.933594 15.179688 14.933594 C 13.8125 14.933594 12.703125 16.011719 12.703125 17.332031 C 12.703125 18.410156 13.4375 19.316406 14.445312 19.625 L 14.445312 21.648438 C 13.4375 21.953125 12.703125 22.863281 12.703125 23.941406 C 12.703125 25.269531 13.816406 26.339844 15.179688 26.339844 Z M 15.179688 26.339844" clip-rule="evenodd"/></clipPath></defs><g clip-path="url(#a)"><path fill="#FFF" d="M 15 0 C 6.984375 0 0.484375 6.5 0.484375 14.515625 C 0.484375 22.53125 6.984375 29.03125 15 29.03125 C 23.015625 29.03125 29.515625 22.53125 29.515625 14.515625 C 29.515625 6.5 23.015625 0 15 0"/></g><g clip-path="url(#b)"><g clip-path="url(#c)"><path fill="#101010" d="M 6.1875 2.386719 L 6.1875 26.339844 L 24.175781 26.339844 L 24.175781 2.386719 Z M 6.1875 2.386719"/></g></g></svg>