<svg xmlns="http://www.w3.org/2000/svg" width="75" viewBox="0 0 75 30" height="30" version="1.0"><g fill="#E6E6E6"><g><g><path d="M 2.355469 0.296875 L 2.355469 0.25 L 2.53125 0.0742188 C 2.652344 -0.0507812 2.804688 -0.199219 2.976562 -0.398438 C 3.148438 -0.59375 3.347656 -0.820312 3.546875 -1.066406 C 3.746094 -1.316406 3.917969 -1.5625 4.09375 -1.8125 C 4.144531 -1.886719 4.191406 -1.984375 4.265625 -2.132812 C 4.339844 -2.28125 4.414062 -2.429688 4.515625 -2.605469 C 4.613281 -2.777344 4.714844 -2.953125 4.835938 -3.148438 C 4.960938 -3.347656 5.085938 -3.496094 5.210938 -3.621094 C 5.183594 -3.621094 5.136719 -3.597656 5.058594 -3.570312 C 5.058594 -3.597656 5.058594 -3.621094 5.035156 -3.648438 C 5.085938 -3.671875 5.109375 -3.695312 5.136719 -3.746094 C 5.085938 -3.746094 5.058594 -3.746094 5.058594 -3.769531 C 5.058594 -3.796875 5.058594 -3.820312 5.035156 -3.84375 C 5.085938 -3.871094 5.136719 -3.894531 5.183594 -3.917969 C 5.234375 -3.945312 5.257812 -3.96875 5.285156 -3.992188 C 5.285156 -3.96875 5.308594 -3.96875 5.332031 -3.96875 C 5.359375 -3.96875 5.40625 -3.96875 5.480469 -3.992188 C 5.554688 -4.019531 5.632812 -4.042969 5.707031 -4.066406 C 5.753906 -4.066406 5.804688 -4.066406 5.855469 -4.066406 C 5.902344 -4.066406 5.953125 -4.066406 6.003906 -4.066406 L 6.25 -4.117188 L 6.5 -4.167969 C 6.472656 -4.167969 6.574219 -4.191406 6.820312 -4.242188 C 7.070312 -4.292969 7.34375 -4.316406 7.664062 -4.316406 C 7.492188 -3.796875 7.292969 -3.300781 7.070312 -2.828125 C 6.847656 -2.355469 6.625 -1.910156 6.398438 -1.488281 C 6.425781 -1.511719 6.398438 -1.464844 6.351562 -1.363281 C 6.300781 -1.265625 6.25 -1.140625 6.203125 -1.015625 C 6.152344 -0.894531 6.101562 -0.746094 6.050781 -0.59375 C 6.003906 -0.445312 5.976562 -0.347656 5.976562 -0.273438 C 5.976562 -0.199219 6.003906 -0.125 6.050781 -0.0742188 C 6.101562 -0.0234375 6.128906 0.0507812 6.128906 0.125 C 6.101562 0.125 6.078125 0.125 6.050781 0.148438 C 6.027344 0.171875 5.976562 0.199219 5.902344 0.222656 C 5.929688 0.25 5.929688 0.324219 5.929688 0.421875 C 5.929688 0.472656 5.929688 0.496094 5.902344 0.496094 L 5.828125 0.496094 C 5.753906 0.496094 5.707031 0.546875 5.707031 0.621094 C 5.707031 0.667969 5.753906 0.71875 5.855469 0.792969 C 5.953125 0.867188 6.078125 0.941406 6.226562 1.015625 C 6.375 1.089844 6.523438 1.164062 6.699219 1.214844 C 6.871094 1.265625 7.019531 1.289062 7.167969 1.289062 C 7.195312 1.289062 7.21875 1.289062 7.269531 1.265625 C 7.316406 1.242188 7.367188 1.242188 7.417969 1.242188 C 7.441406 1.242188 7.492188 1.242188 7.542969 1.265625 C 7.589844 1.289062 7.640625 1.289062 7.691406 1.289062 C 7.765625 1.289062 7.886719 1.242188 8.039062 1.140625 C 8.1875 1.042969 8.335938 0.96875 8.457031 0.894531 L 8.484375 0.917969 C 8.457031 0.941406 8.457031 0.96875 8.457031 0.992188 C 8.457031 1.066406 8.535156 1.117188 8.683594 1.117188 L 8.730469 1.066406 C 8.804688 1.140625 8.855469 1.191406 8.878906 1.214844 C 9.054688 0.992188 9.203125 0.820312 9.328125 0.695312 C 9.449219 0.570312 9.527344 0.421875 9.574219 0.25 C 9.601562 0.222656 9.625 0.148438 9.675781 0.0234375 C 9.722656 -0.0976562 9.773438 -0.222656 9.847656 -0.371094 C 9.921875 -0.519531 9.972656 -0.667969 10.023438 -0.820312 C 10.070312 -0.96875 10.097656 -1.089844 10.097656 -1.191406 C 10.097656 -1.214844 10.121094 -1.316406 10.171875 -1.488281 C 10.21875 -1.660156 10.292969 -1.859375 10.394531 -2.082031 C 10.492188 -2.308594 10.59375 -2.53125 10.691406 -2.753906 C 10.789062 -2.976562 10.890625 -3.175781 10.988281 -3.324219 C 11.089844 -3.472656 11.136719 -3.570312 11.164062 -3.597656 C 11.1875 -3.621094 11.210938 -3.648438 11.210938 -3.671875 C 11.210938 -3.695312 11.210938 -3.746094 11.210938 -3.820312 C 11.210938 -3.894531 11.238281 -4.019531 11.3125 -4.191406 C 11.386719 -4.367188 11.484375 -4.640625 11.632812 -4.984375 C 11.78125 -5.332031 12.007812 -5.804688 12.277344 -6.398438 C 12.453125 -6.574219 12.578125 -6.847656 12.675781 -7.242188 C 12.773438 -7.640625 12.925781 -8.039062 13.097656 -8.410156 C 13.46875 -9.226562 13.816406 -9.972656 14.113281 -10.667969 C 14.414062 -11.359375 14.5625 -12.054688 14.5625 -12.75 C 14.5625 -12.773438 14.535156 -12.875 14.488281 -13.046875 C 14.4375 -13.222656 14.363281 -13.320312 14.289062 -13.34375 C 14.289062 -13.371094 14.3125 -13.371094 14.363281 -13.371094 C 14.289062 -13.644531 14.214844 -13.816406 14.140625 -13.890625 C 14.066406 -13.964844 13.992188 -14.066406 13.917969 -14.1875 L 13.992188 -14.1875 C 14.039062 -14.1875 14.089844 -14.164062 14.140625 -14.140625 L 14.289062 -14.039062 C 14.289062 -14.066406 14.289062 -14.089844 14.3125 -14.113281 C 14.1875 -14.164062 14.089844 -14.214844 14.015625 -14.238281 C 13.941406 -14.261719 13.867188 -14.339844 13.792969 -14.460938 C 13.765625 -14.4375 13.742188 -14.414062 13.71875 -14.386719 C 13.691406 -14.363281 13.667969 -14.363281 13.644531 -14.363281 C 13.667969 -14.363281 13.644531 -14.386719 13.59375 -14.414062 C 13.542969 -14.4375 13.496094 -14.460938 13.421875 -14.511719 C 13.34375 -14.5625 13.269531 -14.609375 13.222656 -14.660156 C 13.171875 -14.710938 13.148438 -14.757812 13.148438 -14.785156 C 13.148438 -14.808594 13.148438 -14.835938 13.171875 -14.859375 C 13.046875 -14.882812 12.972656 -14.910156 12.949219 -14.910156 C 12.898438 -14.910156 12.847656 -14.910156 12.800781 -14.910156 C 12.75 -14.910156 12.699219 -14.910156 12.652344 -14.910156 C 12.527344 -14.910156 12.402344 -14.910156 12.277344 -14.910156 C 12.15625 -14.910156 12.03125 -14.910156 11.90625 -14.910156 C 11.511719 -14.835938 11.210938 -14.757812 11.039062 -14.683594 C 10.863281 -14.609375 10.714844 -14.511719 10.617188 -14.414062 C 10.519531 -14.3125 10.417969 -14.1875 10.34375 -14.039062 C 10.269531 -13.890625 10.144531 -13.71875 9.972656 -13.542969 C 9.402344 -12.972656 8.929688 -12.402344 8.558594 -11.808594 C 8.1875 -11.210938 7.863281 -10.691406 7.589844 -10.246094 C 7.617188 -10.246094 7.617188 -10.246094 7.617188 -10.246094 C 7.617188 -10.246094 7.640625 -10.246094 7.664062 -10.246094 C 7.542969 -10.171875 7.417969 -10.070312 7.316406 -9.921875 C 7.21875 -9.773438 7.09375 -9.601562 6.96875 -9.425781 C 6.847656 -9.253906 6.722656 -9.054688 6.625 -8.855469 C 6.523438 -8.65625 6.398438 -8.484375 6.277344 -8.335938 C 6.277344 -8.359375 6.25 -8.335938 6.226562 -8.261719 C 6.203125 -8.1875 6.152344 -8.085938 6.078125 -7.988281 C 6.003906 -7.886719 5.929688 -7.789062 5.828125 -7.691406 C 5.730469 -7.589844 5.632812 -7.515625 5.507812 -7.492188 C 5.53125 -7.464844 5.554688 -7.441406 5.582031 -7.441406 C 5.554688 -7.417969 5.53125 -7.390625 5.507812 -7.367188 L 5.457031 -7.269531 C 5.285156 -6.699219 5.011719 -6.226562 4.640625 -5.878906 C 4.265625 -5.53125 3.84375 -5.359375 3.375 -5.359375 C 3.101562 -5.359375 2.851562 -5.382812 2.605469 -5.433594 C 2.355469 -5.480469 2.109375 -5.53125 1.835938 -5.554688 C 1.710938 -5.554688 1.585938 -5.554688 1.488281 -5.554688 C 1.390625 -5.554688 1.289062 -5.507812 1.214844 -5.433594 C 1.242188 -5.457031 1.242188 -5.457031 1.191406 -5.433594 C 1.140625 -5.40625 1.089844 -5.359375 1.015625 -5.285156 C 0.941406 -5.210938 0.867188 -5.136719 0.820312 -5.058594 C 0.769531 -4.984375 0.746094 -4.910156 0.746094 -4.835938 C 0.746094 -4.6875 0.792969 -4.5625 0.894531 -4.441406 C 0.992188 -4.316406 1.066406 -4.167969 1.140625 -3.992188 C 1.191406 -3.917969 1.242188 -3.820312 1.289062 -3.695312 C 1.339844 -3.570312 1.414062 -3.449219 1.511719 -3.324219 C 1.613281 -3.199219 1.710938 -3.101562 1.835938 -3 C 1.960938 -2.902344 2.132812 -2.851562 2.332031 -2.851562 L 2.40625 -2.851562 C 2.429688 -2.851562 2.457031 -2.851562 2.480469 -2.828125 C 2.15625 -2.40625 1.910156 -2.035156 1.738281 -1.710938 C 1.5625 -1.390625 1.316406 -1.066406 0.992188 -0.746094 C 0.992188 -0.769531 0.992188 -0.769531 0.96875 -0.769531 C 0.992188 -0.792969 1.015625 -0.820312 1.042969 -0.84375 C 1.066406 -0.867188 1.089844 -0.894531 1.117188 -0.917969 C 1.042969 -0.84375 0.96875 -0.71875 0.894531 -0.570312 C 0.820312 -0.421875 0.746094 -0.324219 0.667969 -0.25 C 0.667969 -0.273438 0.644531 -0.25 0.621094 -0.199219 C 0.59375 -0.148438 0.546875 -0.0976562 0.496094 -0.0507812 C 0.445312 0 0.398438 0.0507812 0.347656 0.0976562 L 0.273438 0.171875 L 0.273438 0.199219 C 0.273438 0.222656 0.25 0.25 0.222656 0.25 C 0.199219 0.25 0.171875 0.273438 0.148438 0.296875 C 0.148438 0.324219 0.171875 0.347656 0.199219 0.371094 C 0.148438 0.398438 0.0742188 0.472656 -0.0507812 0.621094 C -0.171875 0.769531 -0.222656 0.917969 -0.222656 1.042969 C -0.222656 1.066406 -0.199219 1.089844 -0.125 1.117188 C -0.148438 1.089844 -0.171875 1.042969 -0.199219 0.96875 L -0.0976562 0.96875 C -0.125 0.992188 -0.125 1.042969 -0.125 1.117188 C -0.0742188 1.066406 -0.0507812 1.042969 -0.0234375 1.042969 C -0.0234375 1.117188 -0.0742188 1.191406 -0.171875 1.265625 C -0.273438 1.339844 -0.324219 1.414062 -0.324219 1.488281 C -0.324219 1.5625 -0.296875 1.613281 -0.222656 1.636719 C -0.148438 1.660156 -0.0976562 1.6875 -0.0742188 1.6875 C -0.0976562 1.6875 -0.0742188 1.6875 0 1.660156 C 0.0742188 1.636719 0.171875 1.613281 0.273438 1.585938 C 0.371094 1.5625 0.472656 1.539062 0.570312 1.488281 C 0.667969 1.4375 0.746094 1.390625 0.792969 1.339844 L 0.917969 1.242188 C 1.015625 1.164062 1.117188 1.089844 1.214844 1.015625 C 1.316406 0.941406 1.414062 0.894531 1.511719 0.84375 C 1.613281 0.792969 1.6875 0.769531 1.710938 0.769531 Z M 8.210938 -9.03125 L 8.136719 -9.03125 C 8.160156 -9.054688 8.1875 -9.105469 8.210938 -9.152344 C 8.234375 -9.203125 8.261719 -9.226562 8.308594 -9.226562 L 8.359375 -9.226562 C 8.382812 -9.277344 8.410156 -9.328125 8.410156 -9.375 C 8.410156 -9.425781 8.433594 -9.476562 8.457031 -9.527344 L 8.433594 -9.527344 L 8.484375 -9.550781 C 8.457031 -9.574219 8.433594 -9.601562 8.433594 -9.625 C 8.433594 -9.675781 8.484375 -9.75 8.582031 -9.847656 C 8.683594 -9.945312 8.730469 -10.023438 8.730469 -10.046875 C 8.730469 -10.023438 8.757812 -10.070312 8.832031 -10.195312 C 8.90625 -10.320312 8.953125 -10.394531 8.980469 -10.417969 C 8.953125 -10.417969 8.929688 -10.417969 8.90625 -10.417969 C 8.878906 -10.417969 8.855469 -10.417969 8.832031 -10.417969 C 8.832031 -10.445312 8.855469 -10.492188 8.929688 -10.566406 C 9.003906 -10.640625 9.078125 -10.714844 9.152344 -10.816406 C 9.226562 -10.914062 9.300781 -11.015625 9.375 -11.113281 C 9.449219 -11.210938 9.476562 -11.285156 9.476562 -11.335938 C 9.476562 -11.359375 9.476562 -11.386719 9.449219 -11.386719 C 9.425781 -11.386719 9.402344 -11.410156 9.375 -11.4375 C 9.402344 -11.410156 9.425781 -11.410156 9.425781 -11.410156 C 9.425781 -11.410156 9.449219 -11.410156 9.476562 -11.386719 C 9.527344 -11.460938 9.574219 -11.535156 9.625 -11.632812 C 9.675781 -11.734375 9.722656 -11.808594 9.75 -11.882812 C 9.75 -11.90625 9.75 -11.933594 9.722656 -11.957031 C 9.699219 -11.957031 9.675781 -11.933594 9.648438 -11.90625 C 9.625 -11.882812 9.601562 -11.855469 9.574219 -11.832031 C 9.601562 -11.855469 9.648438 -11.933594 9.699219 -12.03125 C 9.675781 -12.007812 9.648438 -12.007812 9.648438 -12.007812 C 9.648438 -12.007812 9.625 -12.007812 9.601562 -11.980469 C 9.625 -12.03125 9.648438 -12.082031 9.648438 -12.128906 C 9.648438 -12.179688 9.675781 -12.203125 9.722656 -12.230469 C 9.722656 -12.203125 9.722656 -12.179688 9.722656 -12.179688 C 9.722656 -12.179688 9.722656 -12.15625 9.722656 -12.128906 C 9.75 -12.128906 9.75 -12.128906 9.75 -12.128906 C 9.75 -12.128906 9.773438 -12.128906 9.796875 -12.128906 C 9.773438 -12.054688 9.75 -12.007812 9.75 -11.980469 C 9.796875 -11.980469 9.824219 -11.980469 9.824219 -12.007812 L 9.824219 -12.03125 C 9.898438 -12.105469 9.921875 -12.15625 9.921875 -12.179688 C 9.898438 -12.179688 9.871094 -12.179688 9.847656 -12.179688 C 9.824219 -12.179688 9.796875 -12.179688 9.773438 -12.179688 L 9.773438 -12.230469 C 9.773438 -12.253906 9.773438 -12.253906 9.796875 -12.253906 L 9.824219 -12.253906 C 9.847656 -12.253906 9.847656 -12.253906 9.847656 -12.253906 C 9.847656 -12.253906 9.847656 -12.253906 9.871094 -12.253906 C 9.871094 -12.277344 9.871094 -12.277344 9.871094 -12.277344 C 9.871094 -12.277344 9.871094 -12.277344 9.871094 -12.304688 C 9.871094 -12.328125 9.871094 -12.351562 9.847656 -12.378906 C 9.945312 -12.476562 10.023438 -12.550781 10.070312 -12.625 C 10.121094 -12.699219 10.171875 -12.800781 10.246094 -12.925781 C 10.246094 -13 10.246094 -13.046875 10.21875 -13.097656 C 10.246094 -13.074219 10.269531 -13.046875 10.292969 -13.023438 C 10.292969 -13.046875 10.292969 -13.046875 10.320312 -13.046875 C 10.292969 -13.074219 10.269531 -13.097656 10.246094 -13.121094 C 10.417969 -13.296875 10.542969 -13.394531 10.640625 -13.421875 C 10.742188 -13.445312 10.863281 -13.46875 11.039062 -13.46875 L 11.0625 -13.445312 C 11.0625 -13.421875 11.0625 -13.421875 11.089844 -13.421875 C 11.0625 -13.394531 11.039062 -13.371094 11.039062 -13.34375 C 11.039062 -13.320312 11.015625 -13.296875 10.964844 -13.296875 L 10.941406 -13.296875 C 10.914062 -13.296875 10.890625 -13.269531 10.863281 -13.246094 C 10.863281 -13.222656 10.890625 -13.195312 10.914062 -13.171875 C 10.890625 -13.171875 10.816406 -13.046875 10.691406 -12.824219 C 10.566406 -12.601562 10.445312 -12.351562 10.320312 -12.082031 C 10.21875 -11.757812 10.097656 -11.4375 9.945312 -11.113281 C 9.796875 -10.789062 9.648438 -10.445312 9.476562 -10.097656 C 9.300781 -9.722656 9.128906 -9.328125 8.980469 -8.90625 C 8.832031 -8.484375 8.683594 -8.085938 8.507812 -7.714844 C 8.484375 -7.691406 8.433594 -7.542969 8.335938 -7.269531 C 8.234375 -6.996094 8.113281 -6.699219 7.988281 -6.375 C 7.863281 -6.050781 7.738281 -5.753906 7.617188 -5.507812 C 7.492188 -5.257812 7.390625 -5.136719 7.316406 -5.136719 C 7.195312 -5.136719 7.046875 -5.136719 6.871094 -5.136719 C 6.699219 -5.136719 6.523438 -5.136719 6.351562 -5.136719 C 6.175781 -5.136719 6.027344 -5.136719 5.902344 -5.136719 C 5.78125 -5.136719 5.707031 -5.160156 5.679688 -5.183594 C 5.753906 -5.285156 5.855469 -5.382812 5.976562 -5.480469 C 6.101562 -5.582031 6.203125 -5.707031 6.277344 -5.828125 L 6.25 -5.878906 L 6.546875 -6.175781 C 6.523438 -6.203125 6.5 -6.226562 6.472656 -6.226562 C 6.449219 -6.226562 6.449219 -6.226562 6.449219 -6.25 C 6.449219 -6.226562 6.472656 -6.226562 6.5 -6.277344 C 6.523438 -6.324219 6.574219 -6.375 6.625 -6.449219 L 6.773438 -6.648438 C 6.820312 -6.722656 6.871094 -6.746094 6.921875 -6.746094 C 6.921875 -6.773438 6.894531 -6.796875 6.871094 -6.796875 C 6.847656 -6.796875 6.820312 -6.820312 6.820312 -6.847656 C 6.820312 -6.894531 6.847656 -6.96875 6.921875 -7.070312 C 6.996094 -7.167969 7.046875 -7.269531 7.070312 -7.34375 C 7.09375 -7.441406 7.21875 -7.640625 7.417969 -7.914062 C 7.617188 -8.1875 7.8125 -8.535156 8.039062 -8.953125 Z M 8.308594 -10.320312 C 8.335938 -10.34375 8.359375 -10.367188 8.382812 -10.394531 C 8.410156 -10.417969 8.433594 -10.445312 8.457031 -10.46875 C 8.457031 -10.34375 8.410156 -10.269531 8.335938 -10.269531 Z M 1.710938 0.792969 C 1.636719 0.820312 1.585938 0.867188 1.5625 0.941406 C 1.539062 1.015625 1.488281 1.066406 1.4375 1.117188 C 1.464844 1.117188 1.511719 1.089844 1.585938 1.015625 C 1.660156 0.941406 1.710938 0.867188 1.710938 0.792969 Z M 1.710938 0.792969 C 1.835938 0.792969 1.910156 0.71875 1.933594 0.570312 C 1.910156 0.644531 1.886719 0.667969 1.859375 0.667969 L 1.8125 0.667969 C 1.785156 0.667969 1.761719 0.695312 1.761719 0.71875 C 1.761719 0.746094 1.738281 0.769531 1.710938 0.792969 Z M 2.082031 0.421875 C 2.058594 0.472656 2.035156 0.519531 2.007812 0.546875 C 1.984375 0.570312 1.984375 0.59375 1.984375 0.621094 L 2.035156 0.621094 C 2.058594 0.621094 2.082031 0.59375 2.082031 0.570312 C 2.082031 0.496094 2.082031 0.445312 2.058594 0.421875 Z M 2.082031 0.421875" transform="translate(4.317 16.813)"/></g></g></g><g fill="#E6E6E6"><g><g><path d="M 6.152344 7.269531 C 6.175781 7.144531 6.203125 7.046875 6.25 6.945312 C 6.300781 6.847656 6.351562 6.746094 6.375 6.648438 C 6.375 6.625 6.398438 6.546875 6.472656 6.449219 C 6.546875 6.351562 6.625 6.226562 6.722656 6.101562 C 6.820312 5.976562 6.894531 5.855469 6.96875 5.730469 C 7.046875 5.605469 7.070312 5.480469 7.070312 5.359375 C 7.070312 5.308594 7.070312 5.285156 7.046875 5.257812 C 7.046875 5.210938 7.070312 5.160156 7.121094 5.109375 C 7.167969 5.058594 7.195312 5.011719 7.195312 4.9375 C 7.195312 4.910156 7.195312 4.886719 7.195312 4.863281 C 7.195312 4.835938 7.195312 4.8125 7.195312 4.789062 L 7.195312 4.738281 C 7.195312 4.714844 7.195312 4.714844 7.21875 4.714844 L 7.242188 4.714844 C 7.292969 4.714844 7.316406 4.664062 7.34375 4.5625 C 7.367188 4.464844 7.390625 4.390625 7.417969 4.316406 C 7.589844 3.746094 7.8125 3.175781 8.0625 2.605469 C 8.308594 2.035156 8.535156 1.4375 8.707031 0.820312 C 8.78125 0.621094 8.855469 0.371094 8.929688 0.0742188 C 9.003906 -0.222656 9.105469 -0.421875 9.226562 -0.546875 C 9.425781 -0.667969 9.574219 -0.769531 9.675781 -0.84375 C 9.773438 -0.917969 9.871094 -0.96875 9.972656 -1.015625 C 10.070312 -1.066406 10.171875 -1.117188 10.292969 -1.191406 C 10.417969 -1.265625 10.566406 -1.363281 10.765625 -1.488281 C 10.816406 -1.511719 10.941406 -1.539062 11.113281 -1.585938 C 11.285156 -1.636719 11.484375 -1.6875 11.683594 -1.738281 C 11.882812 -1.785156 12.054688 -1.859375 12.203125 -1.933594 C 12.351562 -2.007812 12.429688 -2.109375 12.429688 -2.234375 C 12.429688 -2.40625 12.328125 -2.480469 12.15625 -2.480469 C 11.980469 -2.457031 11.78125 -2.40625 11.558594 -2.332031 C 11.335938 -2.257812 11.089844 -2.15625 10.839844 -2.035156 C 10.59375 -1.910156 10.34375 -1.785156 10.097656 -1.636719 C 9.847656 -1.488281 9.625 -1.363281 9.425781 -1.242188 C 9.425781 -1.265625 9.449219 -1.339844 9.5 -1.488281 C 9.550781 -1.636719 9.601562 -1.738281 9.675781 -1.8125 C 9.75 -1.886719 9.824219 -2.035156 9.921875 -2.28125 C 10.023438 -2.53125 10.144531 -2.804688 10.269531 -3.125 C 10.394531 -3.449219 10.542969 -3.796875 10.691406 -4.167969 C 10.839844 -4.539062 10.988281 -4.886719 11.136719 -5.234375 C 11.261719 -5.40625 11.386719 -5.730469 11.535156 -6.175781 C 11.683594 -6.625 11.933594 -7.21875 12.304688 -7.960938 C 12.304688 -7.988281 12.351562 -8.136719 12.476562 -8.410156 C 12.601562 -8.683594 12.652344 -9.03125 12.652344 -9.449219 C 12.652344 -9.648438 12.625 -9.824219 12.601562 -9.972656 C 12.578125 -10.121094 12.527344 -10.246094 12.476562 -10.367188 C 12.429688 -10.492188 12.351562 -10.59375 12.277344 -10.691406 C 12.203125 -10.789062 12.105469 -10.914062 12.007812 -11.0625 C 11.980469 -11.089844 11.855469 -11.1875 11.632812 -11.335938 C 11.410156 -11.484375 11.164062 -11.558594 10.890625 -11.558594 L 10.816406 -11.558594 C 10.714844 -11.558594 10.617188 -11.585938 10.519531 -11.609375 C 10.417969 -11.632812 10.320312 -11.660156 10.246094 -11.660156 C 10.171875 -11.660156 10.070312 -11.558594 9.945312 -11.359375 C 9.824219 -11.164062 9.722656 -10.988281 9.648438 -10.816406 C 9.527344 -10.691406 9.402344 -10.519531 9.300781 -10.292969 C 9.203125 -10.070312 9.105469 -9.824219 9.003906 -9.574219 C 8.90625 -9.328125 8.804688 -9.054688 8.707031 -8.78125 C 8.609375 -8.507812 8.507812 -8.261719 8.410156 -8.039062 C 8.308594 -7.8125 8.210938 -7.566406 8.113281 -7.292969 C 8.011719 -7.019531 7.914062 -6.746094 7.8125 -6.472656 C 7.714844 -6.203125 7.589844 -5.929688 7.441406 -5.65625 C 7.292969 -5.382812 7.121094 -5.160156 6.894531 -4.984375 C 6.820312 -4.910156 6.722656 -4.8125 6.597656 -4.714844 C 6.472656 -4.613281 6.351562 -4.515625 6.226562 -4.414062 C 6.101562 -4.316406 6.003906 -4.21875 5.929688 -4.117188 C 5.855469 -4.019531 5.804688 -3.945312 5.804688 -3.871094 L 5.730469 -3.871094 C 5.65625 -3.871094 5.53125 -3.796875 5.359375 -3.671875 C 5.183594 -3.546875 4.984375 -3.398438 4.789062 -3.25 C 4.589844 -3.101562 4.390625 -2.953125 4.191406 -2.828125 C 3.992188 -2.703125 3.796875 -2.628906 3.621094 -2.628906 C 3.496094 -2.628906 3.398438 -2.679688 3.324219 -2.753906 C 3.25 -2.828125 3.199219 -2.925781 3.175781 -3.050781 C 3.175781 -3.125 3.199219 -3.199219 3.226562 -3.273438 C 3.25 -3.347656 3.273438 -3.421875 3.300781 -3.496094 C 3.300781 -3.523438 3.324219 -3.570312 3.375 -3.648438 C 3.421875 -3.722656 3.472656 -3.796875 3.523438 -3.871094 C 3.570312 -3.945312 3.621094 -4.019531 3.671875 -4.09375 C 3.722656 -4.167969 3.746094 -4.21875 3.746094 -4.265625 C 3.871094 -4.589844 3.96875 -4.835938 4.042969 -5.011719 C 4.117188 -5.183594 4.167969 -5.308594 4.21875 -5.40625 C 4.265625 -5.507812 4.316406 -5.605469 4.367188 -5.707031 C 4.414062 -5.804688 4.464844 -5.976562 4.539062 -6.203125 C 4.613281 -6.425781 4.6875 -6.722656 4.789062 -7.09375 C 4.886719 -7.464844 5.011719 -7.988281 5.183594 -8.65625 C 5.183594 -8.78125 5.210938 -8.929688 5.285156 -9.105469 C 5.359375 -9.277344 5.433594 -9.449219 5.507812 -9.648438 C 5.582031 -9.847656 5.65625 -10.046875 5.730469 -10.246094 C 5.804688 -10.445312 5.828125 -10.640625 5.828125 -10.839844 C 5.828125 -10.964844 5.804688 -11.0625 5.78125 -11.164062 C 5.753906 -11.261719 5.730469 -11.335938 5.730469 -11.410156 C 5.730469 -11.4375 5.730469 -11.4375 5.730469 -11.4375 C 5.730469 -11.4375 5.730469 -11.4375 5.730469 -11.460938 C 5.730469 -11.585938 5.707031 -11.707031 5.632812 -11.808594 C 5.554688 -11.90625 5.507812 -12.007812 5.480469 -12.128906 C 5.480469 -12.15625 5.457031 -12.203125 5.382812 -12.304688 C 5.308594 -12.402344 5.234375 -12.503906 5.136719 -12.625 C 5.035156 -12.75 4.910156 -12.847656 4.789062 -12.949219 C 4.664062 -13.046875 4.539062 -13.097656 4.414062 -13.097656 C 4.390625 -13.097656 4.367188 -13.097656 4.367188 -13.097656 C 4.367188 -13.097656 4.339844 -13.097656 4.316406 -13.097656 C 4.265625 -13.121094 4.21875 -13.121094 4.167969 -13.121094 C 4.117188 -13.121094 4.066406 -13.121094 4.019531 -13.121094 C 3.992188 -13.121094 3.96875 -13.097656 3.945312 -13.074219 C 3.917969 -13.046875 3.894531 -13.023438 3.871094 -13.023438 L 3.871094 -13.074219 C 3.84375 -13.046875 3.820312 -13.046875 3.796875 -13.046875 C 3.570312 -12.925781 3.398438 -12.773438 3.25 -12.578125 C 3.101562 -12.378906 2.976562 -12.15625 2.851562 -11.90625 C 2.730469 -11.660156 2.628906 -11.386719 2.53125 -11.113281 C 2.429688 -10.839844 2.332031 -10.566406 2.234375 -10.292969 C 2.058594 -9.675781 1.835938 -9.078125 1.585938 -8.507812 C 1.339844 -7.9375 1.140625 -7.34375 0.992188 -6.722656 C 0.96875 -6.597656 0.917969 -6.398438 0.84375 -6.152344 C 0.769531 -5.902344 0.695312 -5.632812 0.621094 -5.332031 C 0.546875 -5.035156 0.472656 -4.714844 0.421875 -4.390625 C 0.371094 -4.066406 0.347656 -3.769531 0.347656 -3.496094 C 0.347656 -3.375 0.347656 -3.226562 0.371094 -3.074219 C 0.398438 -2.925781 0.398438 -2.777344 0.398438 -2.628906 C 0.398438 -2.554688 0.398438 -2.429688 0.421875 -2.28125 C 0.445312 -2.132812 0.519531 -1.984375 0.621094 -1.859375 C 0.71875 -1.738281 0.867188 -1.613281 1.089844 -1.511719 C 1.316406 -1.414062 1.613281 -1.363281 1.984375 -1.363281 C 2.109375 -1.390625 2.257812 -1.414062 2.429688 -1.414062 C 2.480469 -1.414062 2.53125 -1.414062 2.578125 -1.414062 C 2.628906 -1.414062 2.679688 -1.414062 2.703125 -1.414062 C 3 -1.414062 3.300781 -1.464844 3.597656 -1.585938 L 4.390625 -1.910156 C 4.761719 -2.082031 5.058594 -2.257812 5.285156 -2.40625 C 5.507812 -2.554688 5.679688 -2.703125 5.828125 -2.851562 C 5.976562 -3 6.101562 -3.125 6.203125 -3.25 C 6.300781 -3.375 6.398438 -3.523438 6.523438 -3.671875 C 6.398438 -3.25 6.203125 -2.753906 5.953125 -2.15625 C 5.707031 -1.5625 5.457031 -0.96875 5.183594 -0.398438 C 5.058594 -0.148438 4.960938 0.125 4.863281 0.398438 C 4.761719 0.667969 4.640625 0.96875 4.515625 1.265625 C 4.390625 1.5625 4.21875 1.859375 4.019531 2.183594 C 3.820312 2.503906 3.570312 2.828125 3.25 3.148438 C 3.25 3.175781 3.226562 3.226562 3.199219 3.273438 C 3.175781 3.324219 3.101562 3.421875 3 3.570312 C 2.902344 3.722656 2.753906 3.917969 2.578125 4.191406 C 2.40625 4.464844 2.15625 4.863281 1.859375 5.359375 C 1.785156 5.53125 1.660156 5.753906 1.488281 6.027344 C 1.316406 6.300781 1.140625 6.597656 0.96875 6.921875 C 0.792969 7.242188 0.644531 7.617188 0.519531 8.011719 C 0.398438 8.410156 0.324219 8.804688 0.324219 9.203125 C 0.324219 9.601562 0.371094 9.898438 0.472656 10.121094 C 0.570312 10.34375 0.792969 10.566406 1.164062 10.789062 L 0.867188 10.789062 C 0.894531 10.816406 0.917969 10.839844 0.96875 10.839844 L 1.066406 10.839844 C 1.164062 10.839844 1.214844 10.816406 1.242188 10.789062 C 1.265625 10.765625 1.289062 10.742188 1.316406 10.742188 C 1.390625 10.742188 1.464844 10.765625 1.539062 10.789062 C 1.539062 10.765625 1.539062 10.765625 1.5625 10.765625 C 1.539062 10.765625 1.511719 10.765625 1.511719 10.765625 C 1.511719 10.765625 1.488281 10.765625 1.4375 10.765625 C 1.5625 10.691406 1.660156 10.640625 1.738281 10.640625 C 1.761719 10.640625 1.785156 10.667969 1.8125 10.691406 C 1.835938 10.667969 1.859375 10.667969 1.886719 10.667969 C 1.910156 10.667969 1.933594 10.667969 1.960938 10.640625 L 2.207031 10.640625 C 2.332031 10.640625 2.480469 10.640625 2.652344 10.617188 C 2.828125 10.59375 2.976562 10.542969 3.125 10.445312 C 3.273438 10.34375 3.375 10.195312 3.449219 9.996094 C 3.472656 9.945312 3.523438 9.871094 3.597656 9.773438 C 3.671875 9.675781 3.746094 9.574219 3.820312 9.476562 C 3.894531 9.375 3.992188 9.277344 4.09375 9.203125 C 4.191406 9.128906 4.292969 9.078125 4.367188 9.078125 C 4.441406 9.078125 4.464844 9.105469 4.464844 9.152344 C 4.464844 9.203125 4.464844 9.253906 4.488281 9.277344 C 4.5625 9.203125 4.640625 9.105469 4.738281 9.003906 C 4.835938 8.90625 4.910156 8.78125 4.960938 8.65625 C 5.035156 8.632812 5.085938 8.558594 5.109375 8.457031 C 5.136719 8.359375 5.234375 8.234375 5.433594 8.0625 L 5.433594 8.160156 C 5.507812 8.039062 5.53125 7.914062 5.53125 7.8125 C 5.53125 7.714844 5.605469 7.640625 5.753906 7.617188 Z M 3.175781 4.242188 C 3.175781 4.316406 3.148438 4.441406 3.101562 4.589844 C 3.050781 4.738281 3 4.910156 2.953125 5.085938 C 2.902344 5.257812 2.828125 5.433594 2.753906 5.582031 C 2.679688 5.730469 2.628906 5.828125 2.605469 5.855469 C 2.480469 6.078125 2.382812 6.300781 2.308594 6.523438 L 2.058594 7.242188 C 2.035156 7.292969 1.933594 7.542969 1.761719 7.988281 C 1.585938 8.433594 1.4375 9.003906 1.316406 9.675781 C 1.214844 9.550781 1.140625 9.375 1.117188 9.152344 C 1.089844 8.929688 1.066406 8.757812 1.066406 8.632812 C 1.066406 8.507812 1.066406 8.382812 1.066406 8.261719 C 1.066406 8.136719 1.066406 8.011719 1.089844 7.886719 C 1.191406 7.8125 1.289062 7.617188 1.414062 7.316406 C 1.539062 7.019531 1.636719 6.746094 1.710938 6.523438 C 1.738281 6.5 1.785156 6.398438 1.859375 6.226562 C 1.933594 6.050781 2.035156 5.855469 2.15625 5.632812 C 2.28125 5.40625 2.429688 5.183594 2.578125 4.9375 C 2.730469 4.6875 2.902344 4.488281 3.074219 4.316406 Z M 2.503906 -2.457031 L 2.753906 -2.207031 L 2.730469 -2.183594 C 2.652344 -2.183594 2.578125 -2.183594 2.480469 -2.183594 C 2.382812 -2.183594 2.308594 -2.207031 2.28125 -2.257812 L 2.355469 -2.332031 C 2.382812 -2.355469 2.40625 -2.382812 2.457031 -2.40625 Z M 0.546875 11.015625 C 0.546875 11.0625 0.546875 11.113281 0.570312 11.136719 C 0.570312 11.164062 0.570312 11.164062 0.59375 11.136719 L 0.621094 11.113281 C 0.570312 11.0625 0.546875 11.039062 0.546875 11.015625 C 0.546875 10.988281 0.496094 10.988281 0.421875 10.988281 C 0.445312 11.015625 0.472656 11.039062 0.496094 11.039062 C 0.519531 11.039062 0.546875 11.0625 0.570312 11.089844 Z M 0.546875 11.015625" transform="translate(16.472 16.813)"/></g></g></g><g fill="#E6E6E6"><g><g><path d="M 15.949219 -0.496094 C 15.902344 -0.496094 15.875 -0.496094 15.875 -0.519531 C 15.875 -0.570312 15.875 -0.621094 15.902344 -0.695312 C 15.925781 -0.769531 15.949219 -0.820312 15.976562 -0.867188 C 16.023438 -0.84375 16.050781 -0.820312 16.050781 -0.792969 C 16.050781 -0.769531 16.050781 -0.71875 16.023438 -0.667969 C 16 -0.621094 15.976562 -0.570312 15.949219 -0.546875 C 15.949219 -0.570312 15.976562 -0.59375 16 -0.59375 C 16.023438 -0.59375 16.050781 -0.621094 16.050781 -0.644531 L 16.050781 -0.71875 C 16.125 -0.746094 16.171875 -0.792969 16.222656 -0.84375 C 16.273438 -0.894531 16.296875 -0.96875 16.296875 -1.042969 L 16.296875 -1.089844 C 16.296875 -1.066406 16.347656 -1.117188 16.421875 -1.242188 C 16.496094 -1.363281 16.59375 -1.511719 16.695312 -1.710938 C 16.792969 -1.910156 16.894531 -2.109375 17.015625 -2.332031 C 17.140625 -2.554688 17.242188 -2.730469 17.316406 -2.851562 L 17.5625 -3.347656 C 17.6875 -3.570312 17.8125 -3.84375 17.933594 -4.167969 C 18.058594 -4.488281 18.15625 -4.835938 18.257812 -5.210938 C 18.355469 -5.582031 18.40625 -5.953125 18.40625 -6.324219 C 18.40625 -6.5 18.382812 -6.671875 18.332031 -6.820312 C 18.332031 -6.796875 18.308594 -6.820312 18.257812 -6.894531 C 18.207031 -6.96875 18.15625 -7.046875 18.109375 -7.121094 C 18.058594 -7.195312 18.007812 -7.269531 17.960938 -7.34375 C 17.910156 -7.417969 17.859375 -7.441406 17.835938 -7.441406 C 17.859375 -7.441406 17.835938 -7.464844 17.761719 -7.515625 C 17.6875 -7.566406 17.613281 -7.617188 17.511719 -7.691406 C 17.414062 -7.765625 17.316406 -7.8125 17.191406 -7.863281 C 17.066406 -7.914062 16.96875 -7.9375 16.894531 -7.9375 L 16.867188 -7.9375 C 16.792969 -7.960938 16.71875 -7.988281 16.667969 -7.988281 C 16.621094 -7.988281 16.570312 -7.988281 16.546875 -7.988281 L 16.125 -7.988281 C 16.050781 -7.988281 15.949219 -7.960938 15.851562 -7.9375 C 15.75 -7.914062 15.652344 -7.839844 15.554688 -7.738281 C 15.554688 -7.714844 15.554688 -7.691406 15.578125 -7.664062 C 15.578125 -7.640625 15.527344 -7.589844 15.429688 -7.515625 C 15.332031 -7.441406 15.230469 -7.34375 15.105469 -7.242188 L 14.734375 -6.945312 C 14.609375 -6.847656 14.511719 -6.773438 14.4375 -6.722656 C 14.363281 -6.648438 14.238281 -6.546875 14.089844 -6.425781 C 13.941406 -6.300781 13.765625 -6.152344 13.59375 -6.003906 C 13.421875 -5.855469 13.246094 -5.679688 13.074219 -5.507812 C 12.898438 -5.332031 12.773438 -5.160156 12.699219 -5.011719 C 12.699219 -5.035156 12.699219 -5.035156 12.699219 -5.035156 C 12.699219 -5.035156 12.699219 -5.058594 12.699219 -5.085938 C 12.652344 -4.960938 12.601562 -4.863281 12.550781 -4.789062 C 12.527344 -4.714844 12.476562 -4.664062 12.429688 -4.613281 C 12.378906 -4.5625 12.328125 -4.539062 12.304688 -4.539062 C 12.230469 -4.515625 12.128906 -4.441406 12.007812 -4.316406 C 11.882812 -4.191406 11.734375 -4.042969 11.585938 -3.894531 C 11.4375 -3.746094 11.285156 -3.621094 11.164062 -3.496094 C 11.039062 -3.375 10.941406 -3.324219 10.863281 -3.324219 C 10.839844 -3.324219 10.816406 -3.324219 10.789062 -3.347656 C 10.964844 -3.621094 11.113281 -3.917969 11.261719 -4.242188 C 11.410156 -4.5625 11.535156 -4.886719 11.660156 -5.210938 C 11.683594 -5.332031 11.757812 -5.507812 11.90625 -5.730469 C 12.054688 -5.953125 12.203125 -6.203125 12.351562 -6.5 C 12.503906 -6.796875 12.625 -7.121094 12.75 -7.492188 C 12.875 -7.863281 12.925781 -8.261719 12.925781 -8.683594 C 12.898438 -8.632812 12.875 -8.582031 12.875 -8.535156 C 12.875 -8.484375 12.847656 -8.433594 12.824219 -8.382812 C 12.800781 -8.410156 12.773438 -8.410156 12.726562 -8.410156 C 12.75 -8.433594 12.75 -8.484375 12.75 -8.558594 C 12.75 -8.632812 12.75 -8.707031 12.75 -8.78125 L 12.75 -8.878906 C 12.773438 -8.953125 12.773438 -9.003906 12.773438 -9.054688 C 12.773438 -9.105469 12.773438 -9.152344 12.773438 -9.226562 L 12.773438 -9.328125 C 12.75 -9.300781 12.75 -9.277344 12.75 -9.253906 C 12.726562 -9.277344 12.699219 -9.351562 12.675781 -9.5 C 12.652344 -9.648438 12.625 -9.75 12.625 -9.773438 C 12.625 -9.824219 12.625 -9.871094 12.652344 -9.898438 C 12.625 -9.898438 12.625 -9.898438 12.625 -9.921875 L 12.625 -9.972656 C 12.601562 -9.945312 12.578125 -9.898438 12.550781 -9.824219 L 12.503906 -9.898438 C 12.503906 -9.921875 12.503906 -9.945312 12.503906 -9.972656 C 12.503906 -9.945312 12.503906 -9.945312 12.476562 -9.996094 C 12.453125 -10.046875 12.402344 -10.097656 12.328125 -10.171875 C 12.253906 -10.246094 12.15625 -10.320312 12.03125 -10.394531 C 11.90625 -10.46875 11.734375 -10.492188 11.511719 -10.492188 C 11.039062 -10.492188 10.617188 -10.367188 10.246094 -10.121094 C 9.871094 -9.871094 9.476562 -9.601562 9.054688 -9.328125 C 8.683594 -8.953125 8.359375 -8.632812 8.085938 -8.382812 C 7.8125 -8.136719 7.492188 -7.839844 7.121094 -7.515625 C 7.144531 -7.542969 7.144531 -7.566406 7.144531 -7.589844 C 7.144531 -7.617188 7.144531 -7.640625 7.167969 -7.664062 C 7.292969 -7.988281 7.417969 -8.359375 7.566406 -8.78125 C 7.714844 -9.203125 7.886719 -9.675781 8.0625 -10.195312 C 8.085938 -10.292969 8.160156 -10.492188 8.261719 -10.765625 C 8.359375 -11.039062 8.410156 -11.3125 8.410156 -11.585938 C 8.410156 -11.632812 8.410156 -11.683594 8.410156 -11.734375 C 8.410156 -11.78125 8.410156 -11.832031 8.410156 -11.882812 C 8.410156 -11.90625 8.410156 -11.933594 8.410156 -11.980469 C 8.410156 -12.03125 8.410156 -12.082031 8.410156 -12.128906 L 8.410156 -12.578125 C 8.410156 -12.601562 8.410156 -12.652344 8.410156 -12.726562 C 8.410156 -12.800781 8.382812 -12.898438 8.359375 -13 C 8.335938 -13.097656 8.285156 -13.195312 8.234375 -13.296875 C 8.1875 -13.394531 8.113281 -13.46875 8.039062 -13.542969 L 8.039062 -13.570312 C 8.039062 -13.644531 7.988281 -13.742188 7.886719 -13.867188 C 7.789062 -13.992188 7.714844 -14.089844 7.640625 -14.164062 C 7.515625 -14.289062 7.390625 -14.414062 7.269531 -14.511719 C 7.144531 -14.585938 7.019531 -14.660156 6.894531 -14.734375 C 6.773438 -14.808594 6.671875 -14.835938 6.574219 -14.835938 C 6.351562 -14.835938 6.152344 -14.757812 6.003906 -14.636719 C 5.855469 -14.511719 5.707031 -14.3125 5.554688 -14.039062 C 5.40625 -13.765625 5.234375 -13.421875 5.058594 -13 C 4.886719 -12.578125 4.6875 -12.082031 4.464844 -11.511719 C 4.09375 -10.566406 3.695312 -9.601562 3.300781 -8.609375 L 2.109375 -5.632812 C 1.984375 -5.359375 1.835938 -5.035156 1.660156 -4.664062 C 1.539062 -4.339844 1.390625 -3.945312 1.214844 -3.472656 C 1.042969 -3 0.867188 -2.480469 0.695312 -1.910156 C 0.667969 -1.835938 0.621094 -1.710938 0.570312 -1.5625 C 0.519531 -1.414062 0.472656 -1.265625 0.421875 -1.089844 C 0.371094 -0.917969 0.324219 -0.746094 0.273438 -0.59375 C 0.222656 -0.445312 0.199219 -0.324219 0.199219 -0.25 C 0.199219 -0.148438 0.25 -0.0507812 0.371094 0.0234375 C 0.496094 0.0976562 0.59375 0.171875 0.667969 0.25 C 0.695312 0.25 0.71875 0.25 0.746094 0.222656 C 0.769531 0.222656 0.792969 0.25 0.792969 0.273438 C 0.792969 0.296875 0.792969 0.324219 0.820312 0.347656 C 0.84375 0.371094 0.84375 0.371094 0.84375 0.347656 L 0.84375 0.324219 C 0.96875 0.445312 1.066406 0.519531 1.140625 0.546875 C 1.214844 0.570312 1.316406 0.570312 1.4375 0.570312 C 1.585938 0.519531 1.6875 0.496094 1.710938 0.496094 C 1.738281 0.496094 1.761719 0.496094 1.785156 0.496094 C 1.8125 0.496094 1.859375 0.472656 1.933594 0.421875 C 2.007812 0.371094 2.15625 0.273438 2.382812 0.125 C 2.40625 0.148438 2.429688 0.171875 2.457031 0.199219 C 2.480469 0.222656 2.503906 0.25 2.53125 0.273438 C 2.628906 0.0507812 2.703125 -0.0976562 2.753906 -0.171875 C 2.804688 -0.25 2.851562 -0.296875 2.902344 -0.324219 L 3.148438 -0.472656 C 3.273438 -0.546875 3.449219 -0.667969 3.671875 -0.84375 C 3.695312 -0.820312 3.695312 -0.792969 3.695312 -0.792969 C 3.695312 -0.792969 3.695312 -0.769531 3.722656 -0.746094 C 3.722656 -0.71875 3.722656 -0.71875 3.746094 -0.71875 C 3.769531 -0.746094 3.796875 -0.746094 3.820312 -0.746094 C 3.84375 -0.746094 3.871094 -0.746094 3.894531 -0.769531 C 3.945312 -0.769531 4.019531 -0.792969 4.117188 -0.867188 C 4.21875 -0.941406 4.316406 -1.015625 4.414062 -1.117188 C 4.515625 -1.214844 4.613281 -1.316406 4.6875 -1.4375 C 4.761719 -1.5625 4.8125 -1.6875 4.8125 -1.8125 L 4.8125 -1.859375 L 4.886719 -1.933594 C 5.109375 -2.355469 5.308594 -2.804688 5.480469 -3.273438 C 5.65625 -3.746094 5.902344 -4.242188 6.25 -4.761719 C 6.226562 -4.738281 6.277344 -4.789062 6.375 -4.910156 C 6.472656 -5.035156 6.597656 -5.210938 6.746094 -5.40625 C 6.894531 -5.605469 7.046875 -5.828125 7.21875 -6.101562 C 7.390625 -6.375 7.542969 -6.648438 7.664062 -6.921875 C 7.839844 -7.167969 8.0625 -7.390625 8.359375 -7.589844 C 8.65625 -7.789062 8.855469 -7.988281 8.980469 -8.210938 L 8.980469 -8.1875 C 9.203125 -8.308594 9.425781 -8.433594 9.625 -8.558594 C 9.824219 -8.683594 10.023438 -8.804688 10.246094 -8.929688 C 10.246094 -8.90625 10.246094 -8.90625 10.269531 -8.90625 C 10.21875 -8.804688 10.171875 -8.707031 10.121094 -8.582031 C 10.070312 -8.457031 10.023438 -8.359375 9.972656 -8.261719 C 9.945312 -8.210938 9.871094 -8.113281 9.773438 -7.960938 C 9.675781 -7.8125 9.574219 -7.640625 9.449219 -7.441406 C 9.328125 -7.242188 9.203125 -7.019531 9.105469 -6.796875 C 9.003906 -6.574219 8.929688 -6.351562 8.878906 -6.128906 C 8.683594 -5.804688 8.507812 -5.457031 8.359375 -5.109375 C 8.210938 -4.761719 8.0625 -4.390625 7.9375 -4.019531 C 7.914062 -3.917969 7.839844 -3.769531 7.738281 -3.546875 C 7.640625 -3.324219 7.515625 -3.074219 7.390625 -2.804688 C 7.269531 -2.53125 7.167969 -2.234375 7.070312 -1.910156 C 6.96875 -1.585938 6.921875 -1.265625 6.921875 -0.941406 C 6.921875 -0.867188 6.945312 -0.769531 6.96875 -0.644531 C 6.996094 -0.59375 7.019531 -0.519531 7.046875 -0.421875 C 7.070312 -0.324219 7.09375 -0.222656 7.121094 -0.125 C 7.144531 -0.0234375 7.195312 0.0507812 7.242188 0.125 C 7.292969 0.199219 7.34375 0.222656 7.417969 0.222656 L 7.367188 0.324219 C 7.34375 0.296875 7.34375 0.296875 7.34375 0.296875 C 7.34375 0.296875 7.34375 0.296875 7.316406 0.273438 C 7.292969 0.296875 7.292969 0.324219 7.292969 0.347656 C 7.292969 0.398438 7.34375 0.445312 7.441406 0.472656 C 7.542969 0.496094 7.640625 0.519531 7.765625 0.519531 C 7.886719 0.519531 8.011719 0.519531 8.136719 0.519531 L 8.410156 0.519531 C 8.382812 0.519531 8.410156 0.496094 8.484375 0.472656 C 8.558594 0.445312 8.632812 0.421875 8.707031 0.371094 C 8.78125 0.324219 8.855469 0.296875 8.929688 0.273438 L 9.03125 0.222656 L 9.078125 0.222656 C 9.105469 0.148438 9.152344 0.0976562 9.226562 0.0976562 C 9.300781 0.0976562 9.351562 0.0742188 9.402344 0.0507812 C 9.425781 0.125 9.449219 0.199219 9.476562 0.25 C 9.5 0.296875 9.527344 0.324219 9.550781 0.324219 C 9.527344 0.296875 9.5 0.273438 9.476562 0.222656 C 9.449219 0.171875 9.449219 0.148438 9.449219 0.125 C 9.449219 0.0976562 9.476562 0.0742188 9.5 0.0507812 C 9.574219 0 9.625 -0.0507812 9.648438 -0.0742188 C 9.675781 -0.0976562 9.722656 -0.148438 9.796875 -0.25 L 10.097656 -0.644531 C 10.21875 -0.820312 10.417969 -1.089844 10.691406 -1.464844 C 10.765625 -1.585938 10.863281 -1.8125 10.964844 -2.109375 C 11.0625 -2.40625 11.238281 -2.628906 11.511719 -2.753906 C 11.484375 -2.777344 11.460938 -2.777344 11.460938 -2.777344 C 11.460938 -2.777344 11.460938 -2.777344 11.460938 -2.804688 L 11.484375 -2.804688 C 11.511719 -2.804688 11.535156 -2.804688 11.558594 -2.828125 C 11.585938 -2.851562 11.609375 -2.851562 11.632812 -2.851562 L 11.683594 -2.851562 C 11.707031 -2.851562 11.734375 -2.878906 11.734375 -2.925781 L 11.734375 -2.976562 C 11.734375 -3 11.78125 -3.027344 11.882812 -3.027344 C 11.855469 -3.050781 11.855469 -3.074219 11.855469 -3.125 C 11.855469 -3.101562 11.855469 -3.101562 11.882812 -3.101562 C 12.105469 -3.324219 12.304688 -3.546875 12.503906 -3.769531 C 12.699219 -3.992188 12.972656 -4.292969 13.320312 -4.640625 C 13.34375 -4.664062 13.371094 -4.6875 13.421875 -4.738281 C 13.46875 -4.789062 13.519531 -4.863281 13.570312 -4.9375 C 13.617188 -5.011719 13.667969 -5.085938 13.742188 -5.136719 C 13.816406 -5.183594 13.867188 -5.210938 13.890625 -5.210938 C 13.867188 -5.183594 13.867188 -5.210938 13.917969 -5.257812 C 13.964844 -5.308594 14.015625 -5.359375 14.066406 -5.433594 C 14.113281 -5.507812 14.164062 -5.554688 14.214844 -5.605469 C 14.261719 -5.65625 14.289062 -5.679688 14.3125 -5.679688 L 14.339844 -5.65625 C 14.289062 -5.65625 14.339844 -5.730469 14.511719 -5.902344 C 14.683594 -6.078125 14.933594 -6.277344 15.253906 -6.5 C 15.28125 -6.523438 15.304688 -6.5 15.355469 -6.449219 C 15.40625 -6.398438 15.429688 -6.324219 15.429688 -6.25 L 15.429688 -6.203125 C 15.230469 -5.582031 14.910156 -4.835938 14.488281 -3.992188 C 14.066406 -3.148438 13.617188 -2.132812 13.148438 -0.941406 C 13.121094 -0.917969 13.097656 -0.84375 13.046875 -0.746094 C 13 -0.644531 12.949219 -0.546875 12.925781 -0.445312 C 12.898438 -0.347656 12.875 -0.25 12.847656 -0.171875 L 12.800781 -0.0507812 C 12.578125 0.25 12.429688 0.621094 12.351562 1.066406 C 12.277344 1.511719 12.230469 1.984375 12.230469 2.457031 C 12.230469 2.925781 12.378906 3.25 12.675781 3.421875 C 12.972656 3.597656 13.296875 3.695312 13.667969 3.695312 C 13.964844 3.671875 14.214844 3.648438 14.4375 3.597656 C 14.660156 3.546875 14.910156 3.449219 15.179688 3.273438 C 15.304688 3.199219 15.453125 3.101562 15.628906 2.953125 C 15.800781 2.804688 16.097656 2.53125 16.496094 2.132812 C 16.445312 2.15625 16.398438 2.183594 16.347656 2.234375 L 16.324219 2.207031 C 16.347656 2.183594 16.371094 2.15625 16.371094 2.109375 C 16.371094 2.058594 16.398438 2.035156 16.421875 2.007812 C 16.421875 2.035156 16.421875 2.058594 16.445312 2.082031 C 16.519531 2.082031 16.570312 2.082031 16.59375 2.058594 C 16.59375 2.035156 16.570312 2.007812 16.519531 1.960938 C 16.546875 1.933594 16.59375 1.910156 16.667969 1.859375 C 16.746094 1.8125 16.769531 1.738281 16.769531 1.613281 L 16.746094 1.585938 C 16.621094 1.613281 16.519531 1.636719 16.445312 1.660156 C 16.324219 1.710938 16.199219 1.8125 16.097656 1.933594 C 16 2.058594 15.875 2.183594 15.75 2.308594 C 15.628906 2.429688 15.503906 2.53125 15.355469 2.628906 C 15.207031 2.730469 15.058594 2.777344 14.910156 2.777344 C 14.683594 2.777344 14.535156 2.753906 14.488281 2.730469 C 14.4375 2.703125 14.386719 2.628906 14.339844 2.53125 L 14.339844 2.628906 C 14.261719 2.605469 14.214844 2.578125 14.1875 2.554688 C 14.238281 2.503906 14.289062 2.40625 14.339844 2.28125 C 14.414062 2.382812 14.460938 2.457031 14.488281 2.480469 C 14.511719 2.503906 14.609375 2.53125 14.785156 2.554688 C 14.660156 2.480469 14.5625 2.40625 14.488281 2.332031 C 14.414062 2.257812 14.386719 2.15625 14.386719 2.035156 C 14.386719 1.984375 14.386719 1.933594 14.414062 1.910156 L 14.363281 1.910156 C 14.339844 1.910156 14.339844 1.910156 14.339844 1.886719 C 14.339844 1.859375 14.363281 1.835938 14.386719 1.8125 C 14.414062 1.835938 14.4375 1.859375 14.460938 1.886719 C 14.460938 1.859375 14.460938 1.835938 14.460938 1.835938 C 14.460938 1.835938 14.460938 1.835938 14.460938 1.8125 C 14.488281 1.886719 14.511719 1.933594 14.511719 1.960938 C 14.535156 1.933594 14.535156 1.910156 14.535156 1.886719 C 14.511719 1.859375 14.488281 1.835938 14.488281 1.8125 C 14.488281 1.785156 14.511719 1.738281 14.5625 1.660156 C 14.609375 1.585938 14.636719 1.511719 14.660156 1.4375 C 14.636719 1.464844 14.609375 1.511719 14.585938 1.5625 C 14.5625 1.613281 14.535156 1.660156 14.511719 1.6875 C 14.488281 1.710938 14.460938 1.710938 14.460938 1.6875 C 14.460938 1.660156 14.460938 1.636719 14.460938 1.613281 C 14.460938 1.539062 14.460938 1.464844 14.488281 1.390625 C 14.511719 1.316406 14.535156 1.265625 14.5625 1.242188 L 14.5625 1.117188 C 14.5625 1.042969 14.585938 0.941406 14.636719 0.792969 C 14.683594 0.644531 14.710938 0.519531 14.710938 0.398438 C 14.710938 0.371094 14.710938 0.347656 14.710938 0.324219 C 14.710938 0.296875 14.710938 0.273438 14.710938 0.25 C 14.710938 0.199219 14.734375 0.171875 14.785156 0.148438 C 14.835938 0.125 14.859375 0.0742188 14.859375 -0.0234375 C 14.933594 0 15.007812 0.0234375 15.082031 0.0742188 C 15.058594 0.125 15.03125 0.171875 15.007812 0.25 C 14.984375 0.324219 14.984375 0.347656 14.984375 0.324219 L 14.984375 0.496094 C 14.984375 0.546875 14.957031 0.59375 14.882812 0.621094 C 14.808594 0.644531 14.785156 0.769531 14.785156 0.992188 C 14.785156 1.066406 14.785156 1.117188 14.808594 1.140625 C 14.808594 1.214844 14.785156 1.265625 14.710938 1.265625 C 14.734375 1.289062 14.757812 1.316406 14.785156 1.339844 C 14.808594 1.242188 14.859375 1.117188 14.933594 0.96875 C 15.007812 0.820312 15.058594 0.71875 15.058594 0.695312 C 15.03125 0.667969 15.007812 0.667969 14.984375 0.667969 C 15.007812 0.644531 15.03125 0.621094 15.058594 0.59375 C 15.082031 0.570312 15.082031 0.546875 15.082031 0.519531 C 15.058594 0.496094 15.03125 0.472656 15.03125 0.445312 C 15.03125 0.421875 15.058594 0.398438 15.132812 0.371094 L 15.179688 0.421875 C 15.207031 0.421875 15.230469 0.398438 15.230469 0.371094 Z M 15.828125 -0.71875 C 15.800781 -0.746094 15.777344 -0.746094 15.777344 -0.746094 C 15.777344 -0.746094 15.75 -0.746094 15.726562 -0.769531 C 15.75 -0.792969 15.800781 -0.867188 15.875 -0.96875 C 15.902344 -0.96875 15.925781 -0.96875 15.949219 -0.941406 C 15.875 -0.867188 15.851562 -0.792969 15.875 -0.71875 C 15.902344 -0.644531 15.875 -0.570312 15.800781 -0.496094 L 15.75 -0.546875 L 15.75 -0.644531 C 15.75 -0.667969 15.777344 -0.695312 15.800781 -0.695312 Z M 15.058594 -0.421875 C 15.058594 -0.371094 15.058594 -0.296875 15.082031 -0.222656 C 15.105469 -0.148438 15.132812 -0.0976562 15.15625 -0.0742188 C 15.132812 -0.0507812 15.105469 -0.0234375 15.082031 0 C 15.058594 0.0234375 15.03125 0.0507812 15.007812 0.0507812 C 14.984375 0.0507812 14.984375 0.0234375 14.984375 0 C 14.957031 -0.0234375 14.957031 -0.0976562 14.957031 -0.222656 C 14.957031 -0.25 14.957031 -0.296875 14.984375 -0.347656 C 15.007812 -0.398438 15.03125 -0.421875 15.058594 -0.398438 Z M 15.207031 -0.472656 C 15.15625 -0.496094 15.132812 -0.519531 15.132812 -0.570312 C 15.132812 -0.621094 15.132812 -0.667969 15.132812 -0.71875 C 15.132812 -0.769531 15.132812 -0.820312 15.15625 -0.867188 C 15.179688 -0.84375 15.230469 -0.820312 15.304688 -0.792969 C 15.28125 -0.746094 15.253906 -0.71875 15.230469 -0.695312 C 15.207031 -0.667969 15.207031 -0.644531 15.207031 -0.621094 C 15.207031 -0.59375 15.207031 -0.570312 15.230469 -0.546875 C 15.230469 -0.519531 15.230469 -0.519531 15.230469 -0.519531 C 15.230469 -0.519531 15.230469 -0.519531 15.230469 -0.496094 Z M 16.097656 -1.214844 C 16.074219 -1.164062 16.074219 -1.117188 16.074219 -1.066406 C 16.074219 -1.015625 16.050781 -0.992188 15.976562 -0.992188 C 15.949219 -1.015625 15.949219 -1.042969 15.949219 -1.066406 C 15.949219 -1.089844 15.949219 -1.117188 15.976562 -1.164062 C 16 -1.214844 16.023438 -1.214844 16.050781 -1.191406 Z M 16.746094 -2.953125 C 16.71875 -2.902344 16.695312 -2.851562 16.695312 -2.804688 C 16.695312 -2.753906 16.667969 -2.703125 16.644531 -2.628906 C 16.621094 -2.652344 16.621094 -2.679688 16.621094 -2.730469 C 16.621094 -2.777344 16.644531 -2.828125 16.695312 -2.878906 C 16.71875 -2.902344 16.746094 -2.925781 16.769531 -2.953125 Z M 15.726562 -1.710938 C 15.652344 -1.738281 15.601562 -1.761719 15.601562 -1.785156 L 15.652344 -1.886719 C 15.675781 -1.8125 15.703125 -1.761719 15.726562 -1.710938 Z M 16.074219 -2.730469 C 16.097656 -2.703125 16.097656 -2.679688 16.097656 -2.652344 C 16.097656 -2.605469 16.074219 -2.578125 16.023438 -2.578125 C 16.023438 -2.628906 16.050781 -2.679688 16.074219 -2.753906 Z M 15.304688 -1.089844 C 15.332031 -1.066406 15.355469 -1.066406 15.378906 -1.066406 C 15.40625 -1.066406 15.429688 -1.066406 15.453125 -1.042969 L 15.40625 -0.992188 L 15.332031 -1.066406 Z M 16.621094 1.585938 C 16.644531 1.585938 16.667969 1.585938 16.695312 1.585938 C 16.71875 1.585938 16.746094 1.585938 16.769531 1.585938 C 16.769531 1.5625 16.769531 1.5625 16.769531 1.5625 C 16.769531 1.5625 16.792969 1.5625 16.867188 1.539062 C 16.84375 1.511719 16.792969 1.511719 16.71875 1.511719 C 16.644531 1.511719 16.59375 1.539062 16.59375 1.5625 Z M 16.621094 1.585938" transform="translate(28.23 16.813)"/></g></g></g><g fill="#E6E6E6"><g><g><path d="M 2.355469 0.296875 L 2.355469 0.25 L 2.53125 0.0742188 C 2.652344 -0.0507812 2.804688 -0.199219 2.976562 -0.398438 C 3.148438 -0.59375 3.347656 -0.820312 3.546875 -1.066406 C 3.746094 -1.316406 3.917969 -1.5625 4.09375 -1.8125 C 4.144531 -1.886719 4.191406 -1.984375 4.265625 -2.132812 C 4.339844 -2.28125 4.414062 -2.429688 4.515625 -2.605469 C 4.613281 -2.777344 4.714844 -2.953125 4.835938 -3.148438 C 4.960938 -3.347656 5.085938 -3.496094 5.210938 -3.621094 C 5.183594 -3.621094 5.136719 -3.597656 5.058594 -3.570312 C 5.058594 -3.597656 5.058594 -3.621094 5.035156 -3.648438 C 5.085938 -3.671875 5.109375 -3.695312 5.136719 -3.746094 C 5.085938 -3.746094 5.058594 -3.746094 5.058594 -3.769531 C 5.058594 -3.796875 5.058594 -3.820312 5.035156 -3.84375 C 5.085938 -3.871094 5.136719 -3.894531 5.183594 -3.917969 C 5.234375 -3.945312 5.257812 -3.96875 5.285156 -3.992188 C 5.285156 -3.96875 5.308594 -3.96875 5.332031 -3.96875 C 5.359375 -3.96875 5.40625 -3.96875 5.480469 -3.992188 C 5.554688 -4.019531 5.632812 -4.042969 5.707031 -4.066406 C 5.753906 -4.066406 5.804688 -4.066406 5.855469 -4.066406 C 5.902344 -4.066406 5.953125 -4.066406 6.003906 -4.066406 L 6.25 -4.117188 L 6.5 -4.167969 C 6.472656 -4.167969 6.574219 -4.191406 6.820312 -4.242188 C 7.070312 -4.292969 7.34375 -4.316406 7.664062 -4.316406 C 7.492188 -3.796875 7.292969 -3.300781 7.070312 -2.828125 C 6.847656 -2.355469 6.625 -1.910156 6.398438 -1.488281 C 6.425781 -1.511719 6.398438 -1.464844 6.351562 -1.363281 C 6.300781 -1.265625 6.25 -1.140625 6.203125 -1.015625 C 6.152344 -0.894531 6.101562 -0.746094 6.050781 -0.59375 C 6.003906 -0.445312 5.976562 -0.347656 5.976562 -0.273438 C 5.976562 -0.199219 6.003906 -0.125 6.050781 -0.0742188 C 6.101562 -0.0234375 6.128906 0.0507812 6.128906 0.125 C 6.101562 0.125 6.078125 0.125 6.050781 0.148438 C 6.027344 0.171875 5.976562 0.199219 5.902344 0.222656 C 5.929688 0.25 5.929688 0.324219 5.929688 0.421875 C 5.929688 0.472656 5.929688 0.496094 5.902344 0.496094 L 5.828125 0.496094 C 5.753906 0.496094 5.707031 0.546875 5.707031 0.621094 C 5.707031 0.667969 5.753906 0.71875 5.855469 0.792969 C 5.953125 0.867188 6.078125 0.941406 6.226562 1.015625 C 6.375 1.089844 6.523438 1.164062 6.699219 1.214844 C 6.871094 1.265625 7.019531 1.289062 7.167969 1.289062 C 7.195312 1.289062 7.21875 1.289062 7.269531 1.265625 C 7.316406 1.242188 7.367188 1.242188 7.417969 1.242188 C 7.441406 1.242188 7.492188 1.242188 7.542969 1.265625 C 7.589844 1.289062 7.640625 1.289062 7.691406 1.289062 C 7.765625 1.289062 7.886719 1.242188 8.039062 1.140625 C 8.1875 1.042969 8.335938 0.96875 8.457031 0.894531 L 8.484375 0.917969 C 8.457031 0.941406 8.457031 0.96875 8.457031 0.992188 C 8.457031 1.066406 8.535156 1.117188 8.683594 1.117188 L 8.730469 1.066406 C 8.804688 1.140625 8.855469 1.191406 8.878906 1.214844 C 9.054688 0.992188 9.203125 0.820312 9.328125 0.695312 C 9.449219 0.570312 9.527344 0.421875 9.574219 0.25 C 9.601562 0.222656 9.625 0.148438 9.675781 0.0234375 C 9.722656 -0.0976562 9.773438 -0.222656 9.847656 -0.371094 C 9.921875 -0.519531 9.972656 -0.667969 10.023438 -0.820312 C 10.070312 -0.96875 10.097656 -1.089844 10.097656 -1.191406 C 10.097656 -1.214844 10.121094 -1.316406 10.171875 -1.488281 C 10.21875 -1.660156 10.292969 -1.859375 10.394531 -2.082031 C 10.492188 -2.308594 10.59375 -2.53125 10.691406 -2.753906 C 10.789062 -2.976562 10.890625 -3.175781 10.988281 -3.324219 C 11.089844 -3.472656 11.136719 -3.570312 11.164062 -3.597656 C 11.1875 -3.621094 11.210938 -3.648438 11.210938 -3.671875 C 11.210938 -3.695312 11.210938 -3.746094 11.210938 -3.820312 C 11.210938 -3.894531 11.238281 -4.019531 11.3125 -4.191406 C 11.386719 -4.367188 11.484375 -4.640625 11.632812 -4.984375 C 11.78125 -5.332031 12.007812 -5.804688 12.277344 -6.398438 C 12.453125 -6.574219 12.578125 -6.847656 12.675781 -7.242188 C 12.773438 -7.640625 12.925781 -8.039062 13.097656 -8.410156 C 13.46875 -9.226562 13.816406 -9.972656 14.113281 -10.667969 C 14.414062 -11.359375 14.5625 -12.054688 14.5625 -12.75 C 14.5625 -12.773438 14.535156 -12.875 14.488281 -13.046875 C 14.4375 -13.222656 14.363281 -13.320312 14.289062 -13.34375 C 14.289062 -13.371094 14.3125 -13.371094 14.363281 -13.371094 C 14.289062 -13.644531 14.214844 -13.816406 14.140625 -13.890625 C 14.066406 -13.964844 13.992188 -14.066406 13.917969 -14.1875 L 13.992188 -14.1875 C 14.039062 -14.1875 14.089844 -14.164062 14.140625 -14.140625 L 14.289062 -14.039062 C 14.289062 -14.066406 14.289062 -14.089844 14.3125 -14.113281 C 14.1875 -14.164062 14.089844 -14.214844 14.015625 -14.238281 C 13.941406 -14.261719 13.867188 -14.339844 13.792969 -14.460938 C 13.765625 -14.4375 13.742188 -14.414062 13.71875 -14.386719 C 13.691406 -14.363281 13.667969 -14.363281 13.644531 -14.363281 C 13.667969 -14.363281 13.644531 -14.386719 13.59375 -14.414062 C 13.542969 -14.4375 13.496094 -14.460938 13.421875 -14.511719 C 13.34375 -14.5625 13.269531 -14.609375 13.222656 -14.660156 C 13.171875 -14.710938 13.148438 -14.757812 13.148438 -14.785156 C 13.148438 -14.808594 13.148438 -14.835938 13.171875 -14.859375 C 13.046875 -14.882812 12.972656 -14.910156 12.949219 -14.910156 C 12.898438 -14.910156 12.847656 -14.910156 12.800781 -14.910156 C 12.75 -14.910156 12.699219 -14.910156 12.652344 -14.910156 C 12.527344 -14.910156 12.402344 -14.910156 12.277344 -14.910156 C 12.15625 -14.910156 12.03125 -14.910156 11.90625 -14.910156 C 11.511719 -14.835938 11.210938 -14.757812 11.039062 -14.683594 C 10.863281 -14.609375 10.714844 -14.511719 10.617188 -14.414062 C 10.519531 -14.3125 10.417969 -14.1875 10.34375 -14.039062 C 10.269531 -13.890625 10.144531 -13.71875 9.972656 -13.542969 C 9.402344 -12.972656 8.929688 -12.402344 8.558594 -11.808594 C 8.1875 -11.210938 7.863281 -10.691406 7.589844 -10.246094 C 7.617188 -10.246094 7.617188 -10.246094 7.617188 -10.246094 C 7.617188 -10.246094 7.640625 -10.246094 7.664062 -10.246094 C 7.542969 -10.171875 7.417969 -10.070312 7.316406 -9.921875 C 7.21875 -9.773438 7.09375 -9.601562 6.96875 -9.425781 C 6.847656 -9.253906 6.722656 -9.054688 6.625 -8.855469 C 6.523438 -8.65625 6.398438 -8.484375 6.277344 -8.335938 C 6.277344 -8.359375 6.25 -8.335938 6.226562 -8.261719 C 6.203125 -8.1875 6.152344 -8.085938 6.078125 -7.988281 C 6.003906 -7.886719 5.929688 -7.789062 5.828125 -7.691406 C 5.730469 -7.589844 5.632812 -7.515625 5.507812 -7.492188 C 5.53125 -7.464844 5.554688 -7.441406 5.582031 -7.441406 C 5.554688 -7.417969 5.53125 -7.390625 5.507812 -7.367188 L 5.457031 -7.269531 C 5.285156 -6.699219 5.011719 -6.226562 4.640625 -5.878906 C 4.265625 -5.53125 3.84375 -5.359375 3.375 -5.359375 C 3.101562 -5.359375 2.851562 -5.382812 2.605469 -5.433594 C 2.355469 -5.480469 2.109375 -5.53125 1.835938 -5.554688 C 1.710938 -5.554688 1.585938 -5.554688 1.488281 -5.554688 C 1.390625 -5.554688 1.289062 -5.507812 1.214844 -5.433594 C 1.242188 -5.457031 1.242188 -5.457031 1.191406 -5.433594 C 1.140625 -5.40625 1.089844 -5.359375 1.015625 -5.285156 C 0.941406 -5.210938 0.867188 -5.136719 0.820312 -5.058594 C 0.769531 -4.984375 0.746094 -4.910156 0.746094 -4.835938 C 0.746094 -4.6875 0.792969 -4.5625 0.894531 -4.441406 C 0.992188 -4.316406 1.066406 -4.167969 1.140625 -3.992188 C 1.191406 -3.917969 1.242188 -3.820312 1.289062 -3.695312 C 1.339844 -3.570312 1.414062 -3.449219 1.511719 -3.324219 C 1.613281 -3.199219 1.710938 -3.101562 1.835938 -3 C 1.960938 -2.902344 2.132812 -2.851562 2.332031 -2.851562 L 2.40625 -2.851562 C 2.429688 -2.851562 2.457031 -2.851562 2.480469 -2.828125 C 2.15625 -2.40625 1.910156 -2.035156 1.738281 -1.710938 C 1.5625 -1.390625 1.316406 -1.066406 0.992188 -0.746094 C 0.992188 -0.769531 0.992188 -0.769531 0.96875 -0.769531 C 0.992188 -0.792969 1.015625 -0.820312 1.042969 -0.84375 C 1.066406 -0.867188 1.089844 -0.894531 1.117188 -0.917969 C 1.042969 -0.84375 0.96875 -0.71875 0.894531 -0.570312 C 0.820312 -0.421875 0.746094 -0.324219 0.667969 -0.25 C 0.667969 -0.273438 0.644531 -0.25 0.621094 -0.199219 C 0.59375 -0.148438 0.546875 -0.0976562 0.496094 -0.0507812 C 0.445312 0 0.398438 0.0507812 0.347656 0.0976562 L 0.273438 0.171875 L 0.273438 0.199219 C 0.273438 0.222656 0.25 0.25 0.222656 0.25 C 0.199219 0.25 0.171875 0.273438 0.148438 0.296875 C 0.148438 0.324219 0.171875 0.347656 0.199219 0.371094 C 0.148438 0.398438 0.0742188 0.472656 -0.0507812 0.621094 C -0.171875 0.769531 -0.222656 0.917969 -0.222656 1.042969 C -0.222656 1.066406 -0.199219 1.089844 -0.125 1.117188 C -0.148438 1.089844 -0.171875 1.042969 -0.199219 0.96875 L -0.0976562 0.96875 C -0.125 0.992188 -0.125 1.042969 -0.125 1.117188 C -0.0742188 1.066406 -0.0507812 1.042969 -0.0234375 1.042969 C -0.0234375 1.117188 -0.0742188 1.191406 -0.171875 1.265625 C -0.273438 1.339844 -0.324219 1.414062 -0.324219 1.488281 C -0.324219 1.5625 -0.296875 1.613281 -0.222656 1.636719 C -0.148438 1.660156 -0.0976562 1.6875 -0.0742188 1.6875 C -0.0976562 1.6875 -0.0742188 1.6875 0 1.660156 C 0.0742188 1.636719 0.171875 1.613281 0.273438 1.585938 C 0.371094 1.5625 0.472656 1.539062 0.570312 1.488281 C 0.667969 1.4375 0.746094 1.390625 0.792969 1.339844 L 0.917969 1.242188 C 1.015625 1.164062 1.117188 1.089844 1.214844 1.015625 C 1.316406 0.941406 1.414062 0.894531 1.511719 0.84375 C 1.613281 0.792969 1.6875 0.769531 1.710938 0.769531 Z M 8.210938 -9.03125 L 8.136719 -9.03125 C 8.160156 -9.054688 8.1875 -9.105469 8.210938 -9.152344 C 8.234375 -9.203125 8.261719 -9.226562 8.308594 -9.226562 L 8.359375 -9.226562 C 8.382812 -9.277344 8.410156 -9.328125 8.410156 -9.375 C 8.410156 -9.425781 8.433594 -9.476562 8.457031 -9.527344 L 8.433594 -9.527344 L 8.484375 -9.550781 C 8.457031 -9.574219 8.433594 -9.601562 8.433594 -9.625 C 8.433594 -9.675781 8.484375 -9.75 8.582031 -9.847656 C 8.683594 -9.945312 8.730469 -10.023438 8.730469 -10.046875 C 8.730469 -10.023438 8.757812 -10.070312 8.832031 -10.195312 C 8.90625 -10.320312 8.953125 -10.394531 8.980469 -10.417969 C 8.953125 -10.417969 8.929688 -10.417969 8.90625 -10.417969 C 8.878906 -10.417969 8.855469 -10.417969 8.832031 -10.417969 C 8.832031 -10.445312 8.855469 -10.492188 8.929688 -10.566406 C 9.003906 -10.640625 9.078125 -10.714844 9.152344 -10.816406 C 9.226562 -10.914062 9.300781 -11.015625 9.375 -11.113281 C 9.449219 -11.210938 9.476562 -11.285156 9.476562 -11.335938 C 9.476562 -11.359375 9.476562 -11.386719 9.449219 -11.386719 C 9.425781 -11.386719 9.402344 -11.410156 9.375 -11.4375 C 9.402344 -11.410156 9.425781 -11.410156 9.425781 -11.410156 C 9.425781 -11.410156 9.449219 -11.410156 9.476562 -11.386719 C 9.527344 -11.460938 9.574219 -11.535156 9.625 -11.632812 C 9.675781 -11.734375 9.722656 -11.808594 9.75 -11.882812 C 9.75 -11.90625 9.75 -11.933594 9.722656 -11.957031 C 9.699219 -11.957031 9.675781 -11.933594 9.648438 -11.90625 C 9.625 -11.882812 9.601562 -11.855469 9.574219 -11.832031 C 9.601562 -11.855469 9.648438 -11.933594 9.699219 -12.03125 C 9.675781 -12.007812 9.648438 -12.007812 9.648438 -12.007812 C 9.648438 -12.007812 9.625 -12.007812 9.601562 -11.980469 C 9.625 -12.03125 9.648438 -12.082031 9.648438 -12.128906 C 9.648438 -12.179688 9.675781 -12.203125 9.722656 -12.230469 C 9.722656 -12.203125 9.722656 -12.179688 9.722656 -12.179688 C 9.722656 -12.179688 9.722656 -12.15625 9.722656 -12.128906 C 9.75 -12.128906 9.75 -12.128906 9.75 -12.128906 C 9.75 -12.128906 9.773438 -12.128906 9.796875 -12.128906 C 9.773438 -12.054688 9.75 -12.007812 9.75 -11.980469 C 9.796875 -11.980469 9.824219 -11.980469 9.824219 -12.007812 L 9.824219 -12.03125 C 9.898438 -12.105469 9.921875 -12.15625 9.921875 -12.179688 C 9.898438 -12.179688 9.871094 -12.179688 9.847656 -12.179688 C 9.824219 -12.179688 9.796875 -12.179688 9.773438 -12.179688 L 9.773438 -12.230469 C 9.773438 -12.253906 9.773438 -12.253906 9.796875 -12.253906 L 9.824219 -12.253906 C 9.847656 -12.253906 9.847656 -12.253906 9.847656 -12.253906 C 9.847656 -12.253906 9.847656 -12.253906 9.871094 -12.253906 C 9.871094 -12.277344 9.871094 -12.277344 9.871094 -12.277344 C 9.871094 -12.277344 9.871094 -12.277344 9.871094 -12.304688 C 9.871094 -12.328125 9.871094 -12.351562 9.847656 -12.378906 C 9.945312 -12.476562 10.023438 -12.550781 10.070312 -12.625 C 10.121094 -12.699219 10.171875 -12.800781 10.246094 -12.925781 C 10.246094 -13 10.246094 -13.046875 10.21875 -13.097656 C 10.246094 -13.074219 10.269531 -13.046875 10.292969 -13.023438 C 10.292969 -13.046875 10.292969 -13.046875 10.320312 -13.046875 C 10.292969 -13.074219 10.269531 -13.097656 10.246094 -13.121094 C 10.417969 -13.296875 10.542969 -13.394531 10.640625 -13.421875 C 10.742188 -13.445312 10.863281 -13.46875 11.039062 -13.46875 L 11.0625 -13.445312 C 11.0625 -13.421875 11.0625 -13.421875 11.089844 -13.421875 C 11.0625 -13.394531 11.039062 -13.371094 11.039062 -13.34375 C 11.039062 -13.320312 11.015625 -13.296875 10.964844 -13.296875 L 10.941406 -13.296875 C 10.914062 -13.296875 10.890625 -13.269531 10.863281 -13.246094 C 10.863281 -13.222656 10.890625 -13.195312 10.914062 -13.171875 C 10.890625 -13.171875 10.816406 -13.046875 10.691406 -12.824219 C 10.566406 -12.601562 10.445312 -12.351562 10.320312 -12.082031 C 10.21875 -11.757812 10.097656 -11.4375 9.945312 -11.113281 C 9.796875 -10.789062 9.648438 -10.445312 9.476562 -10.097656 C 9.300781 -9.722656 9.128906 -9.328125 8.980469 -8.90625 C 8.832031 -8.484375 8.683594 -8.085938 8.507812 -7.714844 C 8.484375 -7.691406 8.433594 -7.542969 8.335938 -7.269531 C 8.234375 -6.996094 8.113281 -6.699219 7.988281 -6.375 C 7.863281 -6.050781 7.738281 -5.753906 7.617188 -5.507812 C 7.492188 -5.257812 7.390625 -5.136719 7.316406 -5.136719 C 7.195312 -5.136719 7.046875 -5.136719 6.871094 -5.136719 C 6.699219 -5.136719 6.523438 -5.136719 6.351562 -5.136719 C 6.175781 -5.136719 6.027344 -5.136719 5.902344 -5.136719 C 5.78125 -5.136719 5.707031 -5.160156 5.679688 -5.183594 C 5.753906 -5.285156 5.855469 -5.382812 5.976562 -5.480469 C 6.101562 -5.582031 6.203125 -5.707031 6.277344 -5.828125 L 6.25 -5.878906 L 6.546875 -6.175781 C 6.523438 -6.203125 6.5 -6.226562 6.472656 -6.226562 C 6.449219 -6.226562 6.449219 -6.226562 6.449219 -6.25 C 6.449219 -6.226562 6.472656 -6.226562 6.5 -6.277344 C 6.523438 -6.324219 6.574219 -6.375 6.625 -6.449219 L 6.773438 -6.648438 C 6.820312 -6.722656 6.871094 -6.746094 6.921875 -6.746094 C 6.921875 -6.773438 6.894531 -6.796875 6.871094 -6.796875 C 6.847656 -6.796875 6.820312 -6.820312 6.820312 -6.847656 C 6.820312 -6.894531 6.847656 -6.96875 6.921875 -7.070312 C 6.996094 -7.167969 7.046875 -7.269531 7.070312 -7.34375 C 7.09375 -7.441406 7.21875 -7.640625 7.417969 -7.914062 C 7.617188 -8.1875 7.8125 -8.535156 8.039062 -8.953125 Z M 8.308594 -10.320312 C 8.335938 -10.34375 8.359375 -10.367188 8.382812 -10.394531 C 8.410156 -10.417969 8.433594 -10.445312 8.457031 -10.46875 C 8.457031 -10.34375 8.410156 -10.269531 8.335938 -10.269531 Z M 1.710938 0.792969 C 1.636719 0.820312 1.585938 0.867188 1.5625 0.941406 C 1.539062 1.015625 1.488281 1.066406 1.4375 1.117188 C 1.464844 1.117188 1.511719 1.089844 1.585938 1.015625 C 1.660156 0.941406 1.710938 0.867188 1.710938 0.792969 Z M 1.710938 0.792969 C 1.835938 0.792969 1.910156 0.71875 1.933594 0.570312 C 1.910156 0.644531 1.886719 0.667969 1.859375 0.667969 L 1.8125 0.667969 C 1.785156 0.667969 1.761719 0.695312 1.761719 0.71875 C 1.761719 0.746094 1.738281 0.769531 1.710938 0.792969 Z M 2.082031 0.421875 C 2.058594 0.472656 2.035156 0.519531 2.007812 0.546875 C 1.984375 0.570312 1.984375 0.59375 1.984375 0.621094 L 2.035156 0.621094 C 2.058594 0.621094 2.082031 0.59375 2.082031 0.570312 C 2.082031 0.496094 2.082031 0.445312 2.058594 0.421875 Z M 2.082031 0.421875" transform="translate(47.008 16.813)"/></g></g></g><g fill="#E6E6E6"><g><g><path d="M 7.960938 -0.222656 C 7.988281 -0.222656 7.988281 -0.25 7.988281 -0.273438 C 7.988281 -0.296875 7.988281 -0.324219 7.988281 -0.347656 C 8.011719 -0.324219 8.039062 -0.273438 8.039062 -0.199219 C 8.011719 -0.199219 7.988281 -0.199219 7.988281 -0.199219 C 7.988281 -0.199219 7.960938 -0.199219 7.9375 -0.199219 C 7.960938 -0.125 7.988281 -0.0742188 8.011719 -0.0507812 C 8.085938 -0.125 8.136719 -0.171875 8.160156 -0.199219 L 8.308594 -0.273438 C 8.234375 -0.273438 8.210938 -0.296875 8.210938 -0.371094 L 8.285156 -0.371094 C 8.308594 -0.371094 8.335938 -0.347656 8.335938 -0.324219 C 8.335938 -0.296875 8.335938 -0.273438 8.335938 -0.222656 C 8.335938 -0.171875 8.335938 -0.125 8.335938 -0.0976562 C 8.359375 -0.0976562 8.382812 -0.148438 8.410156 -0.222656 C 8.433594 -0.296875 8.457031 -0.371094 8.484375 -0.421875 L 8.433594 -0.445312 C 8.457031 -0.472656 8.484375 -0.496094 8.484375 -0.519531 C 8.484375 -0.570312 8.457031 -0.621094 8.410156 -0.644531 C 8.457031 -0.644531 8.484375 -0.644531 8.507812 -0.621094 C 8.535156 -0.71875 8.582031 -0.867188 8.632812 -1.066406 C 8.683594 -1.265625 8.730469 -1.390625 8.804688 -1.4375 C 8.78125 -1.4375 8.757812 -1.4375 8.730469 -1.414062 C 8.804688 -1.539062 8.855469 -1.6875 8.90625 -1.835938 C 8.953125 -1.984375 9.03125 -2.109375 9.105469 -2.183594 C 9.179688 -2.257812 9.226562 -2.382812 9.253906 -2.554688 C 9.277344 -2.730469 9.351562 -2.878906 9.449219 -2.976562 L 9.5 -2.953125 C 9.476562 -2.976562 9.476562 -3 9.476562 -3.027344 L 9.476562 -3.050781 C 9.476562 -3.101562 9.5 -3.175781 9.574219 -3.273438 C 9.648438 -3.375 9.675781 -3.472656 9.675781 -3.546875 C 9.675781 -3.570312 9.675781 -3.570312 9.648438 -3.570312 C 9.625 -3.570312 9.625 -3.570312 9.625 -3.597656 C 9.625 -3.621094 9.648438 -3.648438 9.699219 -3.671875 C 9.75 -3.695312 9.773438 -3.722656 9.773438 -3.746094 L 9.722656 -3.796875 C 9.796875 -3.871094 9.847656 -3.96875 9.898438 -4.09375 C 9.945312 -4.21875 9.972656 -4.316406 9.972656 -4.414062 L 9.972656 -4.515625 C 9.945312 -4.515625 9.921875 -4.488281 9.921875 -4.441406 C 9.921875 -4.390625 9.921875 -4.339844 9.921875 -4.316406 C 9.871094 -4.316406 9.847656 -4.316406 9.847656 -4.339844 C 9.847656 -4.367188 9.847656 -4.414062 9.871094 -4.464844 C 9.898438 -4.515625 9.921875 -4.5625 9.945312 -4.589844 L 9.996094 -4.488281 C 10.023438 -4.5625 10.046875 -4.664062 10.070312 -4.789062 C 10.046875 -4.789062 10.023438 -4.738281 9.996094 -4.613281 L 9.972656 -4.640625 C 9.972656 -4.714844 9.972656 -4.761719 9.972656 -4.8125 C 9.972656 -4.863281 9.972656 -4.9375 9.996094 -5.011719 L 10.046875 -4.910156 L 10.070312 -4.9375 C 10.046875 -4.960938 10.023438 -4.984375 10.023438 -5.011719 C 10.023438 -5.035156 9.996094 -5.035156 9.972656 -5.035156 L 9.945312 -5.035156 C 9.921875 -5.035156 9.898438 -5.035156 9.871094 -5.058594 C 9.847656 -5.085938 9.824219 -5.109375 9.796875 -5.136719 C 9.824219 -5.160156 9.847656 -5.183594 9.871094 -5.183594 L 9.972656 -5.136719 L 10.070312 -5.085938 L 9.996094 -5.210938 L 9.945312 -5.210938 C 9.945312 -5.234375 9.945312 -5.257812 9.945312 -5.285156 C 9.945312 -5.308594 9.945312 -5.332031 9.945312 -5.359375 C 9.921875 -5.359375 9.898438 -5.359375 9.871094 -5.359375 C 9.847656 -5.359375 9.824219 -5.359375 9.796875 -5.359375 C 9.773438 -5.359375 9.75 -5.359375 9.722656 -5.359375 C 9.699219 -5.359375 9.675781 -5.359375 9.648438 -5.359375 C 9.773438 -5.40625 9.824219 -5.457031 9.824219 -5.507812 C 9.824219 -5.53125 9.796875 -5.582031 9.75 -5.65625 C 9.699219 -5.730469 9.675781 -5.804688 9.675781 -5.878906 C 9.675781 -5.929688 9.675781 -5.976562 9.699219 -6.027344 C 9.722656 -6.078125 9.722656 -6.128906 9.722656 -6.175781 C 9.722656 -6.203125 9.722656 -6.226562 9.722656 -6.226562 C 9.722656 -6.226562 9.722656 -6.226562 9.722656 -6.25 C 9.722656 -6.277344 9.722656 -6.300781 9.75 -6.324219 C 9.773438 -6.351562 9.796875 -6.375 9.824219 -6.398438 C 9.972656 -6.648438 10.097656 -6.894531 10.21875 -7.144531 C 10.320312 -7.367188 10.417969 -7.589844 10.519531 -7.839844 C 10.617188 -8.085938 10.667969 -8.308594 10.667969 -8.507812 C 10.667969 -8.609375 10.667969 -8.683594 10.640625 -8.730469 C 10.617188 -8.707031 10.617188 -8.65625 10.617188 -8.582031 C 10.566406 -8.632812 10.542969 -8.683594 10.542969 -8.757812 C 10.542969 -8.78125 10.542969 -8.804688 10.542969 -8.804688 C 10.542969 -8.804688 10.542969 -8.832031 10.542969 -8.855469 C 10.542969 -8.90625 10.542969 -8.953125 10.519531 -9.003906 C 10.492188 -9.054688 10.492188 -9.078125 10.492188 -9.105469 C 10.492188 -9.128906 10.492188 -9.152344 10.519531 -9.152344 C 10.542969 -9.152344 10.566406 -9.179688 10.59375 -9.203125 C 10.566406 -9.203125 10.542969 -9.226562 10.519531 -9.300781 C 10.492188 -9.375 10.46875 -9.449219 10.445312 -9.527344 C 10.417969 -9.601562 10.394531 -9.675781 10.367188 -9.75 C 10.34375 -9.824219 10.292969 -9.847656 10.21875 -9.847656 L 10.195312 -9.847656 C 10.171875 -9.847656 10.144531 -9.847656 10.144531 -9.871094 C 10.121094 -9.871094 10.121094 -9.871094 10.121094 -9.898438 C 9.945312 -9.824219 9.796875 -9.75 9.699219 -9.699219 C 9.601562 -9.648438 9.476562 -9.550781 9.351562 -9.425781 C 9.105469 -9.300781 8.832031 -9.078125 8.507812 -8.78125 C 8.1875 -8.484375 7.863281 -8.136719 7.542969 -7.738281 C 7.21875 -7.34375 6.871094 -6.921875 6.523438 -6.472656 C 6.175781 -6.027344 5.855469 -5.632812 5.554688 -5.257812 C 5.53125 -5.257812 5.53125 -5.257812 5.53125 -5.257812 C 5.53125 -5.257812 5.53125 -5.257812 5.507812 -5.257812 C 5.632812 -5.53125 5.730469 -5.804688 5.804688 -6.078125 C 5.878906 -6.351562 5.976562 -6.625 6.101562 -6.894531 C 6.078125 -6.894531 6.050781 -6.871094 6.027344 -6.796875 C 6.003906 -6.722656 5.976562 -6.648438 5.953125 -6.574219 C 5.929688 -6.5 5.902344 -6.425781 5.878906 -6.375 C 5.855469 -6.324219 5.828125 -6.300781 5.804688 -6.300781 C 5.78125 -6.300781 5.753906 -6.300781 5.753906 -6.300781 C 5.753906 -6.300781 5.730469 -6.300781 5.707031 -6.300781 C 5.753906 -6.398438 5.804688 -6.5 5.855469 -6.597656 C 5.902344 -6.699219 5.929688 -6.796875 5.953125 -6.871094 L 5.828125 -6.871094 C 5.828125 -6.921875 5.828125 -6.96875 5.855469 -7.019531 C 5.878906 -7.070312 5.878906 -7.121094 5.878906 -7.167969 L 5.878906 -7.242188 C 5.902344 -7.242188 5.929688 -7.292969 5.953125 -7.417969 C 5.976562 -7.542969 6.003906 -7.589844 6.027344 -7.589844 C 6.027344 -7.617188 6.050781 -7.664062 6.078125 -7.738281 C 6.101562 -7.789062 6.128906 -7.839844 6.152344 -7.886719 L 6.226562 -8.0625 C 6.300781 -8.1875 6.375 -8.335938 6.449219 -8.507812 L 6.5 -8.507812 C 6.5 -8.535156 6.5 -8.582031 6.472656 -8.632812 C 6.5 -8.632812 6.5 -8.632812 6.5 -8.632812 C 6.5 -8.632812 6.5 -8.632812 6.523438 -8.632812 L 6.546875 -8.632812 C 6.625 -8.730469 6.699219 -8.804688 6.773438 -8.878906 C 6.847656 -8.953125 6.894531 -9.03125 6.921875 -9.105469 C 6.921875 -9.078125 6.921875 -9.054688 6.921875 -9.054688 C 6.921875 -9.054688 6.921875 -9.03125 6.921875 -9.003906 C 6.921875 -9.375 6.996094 -9.75 7.144531 -10.097656 C 7.292969 -10.445312 7.390625 -10.839844 7.441406 -11.285156 C 7.441406 -11.460938 7.417969 -11.609375 7.390625 -11.734375 C 7.367188 -11.855469 7.34375 -11.980469 7.34375 -12.105469 L 7.34375 -12.253906 C 7.34375 -12.230469 7.316406 -12.253906 7.292969 -12.328125 C 7.269531 -12.402344 7.21875 -12.476562 7.167969 -12.578125 L 7.019531 -12.875 C 6.96875 -12.972656 6.921875 -13.046875 6.894531 -13.074219 C 6.871094 -13.097656 6.820312 -13.171875 6.746094 -13.269531 C 6.671875 -13.371094 6.597656 -13.46875 6.5 -13.570312 C 6.398438 -13.667969 6.277344 -13.765625 6.152344 -13.84375 C 6.027344 -13.917969 5.878906 -13.964844 5.707031 -13.964844 C 5.433594 -13.964844 5.210938 -13.867188 5.011719 -13.667969 C 4.8125 -13.46875 4.664062 -13.246094 4.539062 -13 C 4.316406 -12.527344 4.144531 -12.082031 3.992188 -11.660156 C 3.84375 -11.238281 3.695312 -10.839844 3.570312 -10.46875 C 3.449219 -10.097656 3.300781 -9.722656 3.148438 -9.351562 C 3 -8.980469 2.828125 -8.582031 2.628906 -8.160156 L 2.730469 -8.160156 C 2.703125 -8.136719 2.679688 -8.113281 2.652344 -8.113281 C 2.628906 -8.113281 2.628906 -8.085938 2.628906 -8.0625 C 2.628906 -8.039062 2.628906 -8.011719 2.652344 -7.988281 C 2.652344 -8.011719 2.628906 -8.011719 2.605469 -7.988281 C 2.554688 -7.988281 2.503906 -7.9375 2.457031 -7.839844 C 2.40625 -7.738281 2.355469 -7.617188 2.308594 -7.492188 C 2.257812 -7.367188 2.207031 -7.242188 2.183594 -7.121094 C 2.15625 -6.996094 2.132812 -6.921875 2.109375 -6.894531 L 2.132812 -6.871094 C 2.15625 -6.894531 2.15625 -6.894531 2.15625 -6.894531 C 2.15625 -6.894531 2.15625 -6.894531 2.183594 -6.921875 L 2.183594 -6.773438 C 2.15625 -6.796875 2.15625 -6.796875 2.15625 -6.796875 C 2.15625 -6.796875 2.132812 -6.796875 2.109375 -6.820312 C 2.035156 -6.648438 1.960938 -6.472656 1.910156 -6.300781 C 1.859375 -6.128906 1.785156 -5.953125 1.6875 -5.804688 L 1.710938 -5.78125 L 1.761719 -5.828125 C 1.761719 -5.804688 1.738281 -5.78125 1.710938 -5.753906 C 1.6875 -5.730469 1.660156 -5.707031 1.636719 -5.679688 C 1.5625 -5.457031 1.488281 -5.285156 1.4375 -5.136719 C 1.390625 -4.984375 1.339844 -4.835938 1.289062 -4.6875 C 1.242188 -4.539062 1.191406 -4.367188 1.140625 -4.167969 C 1.089844 -3.96875 1.015625 -3.695312 0.917969 -3.375 C 0.867188 -3.226562 0.792969 -3.027344 0.695312 -2.777344 C 0.59375 -2.53125 0.496094 -2.257812 0.398438 -1.960938 C 0.296875 -1.660156 0.222656 -1.363281 0.148438 -1.042969 C 0.0742188 -0.71875 0.0507812 -0.421875 0.0507812 -0.148438 C 0.0507812 -0.0234375 0.0976562 0.0742188 0.199219 0.148438 C 0.296875 0.222656 0.398438 0.273438 0.519531 0.324219 C 0.644531 0.371094 0.769531 0.398438 0.894531 0.421875 C 1.015625 0.445312 1.140625 0.496094 1.242188 0.546875 C 1.316406 0.519531 1.390625 0.496094 1.464844 0.472656 C 1.539062 0.445312 1.585938 0.445312 1.613281 0.445312 C 1.636719 0.445312 1.660156 0.445312 1.6875 0.472656 C 1.710938 0.496094 1.738281 0.496094 1.761719 0.496094 C 1.910156 0.421875 2.007812 0.398438 2.058594 0.398438 C 2.109375 0.398438 2.183594 0.398438 2.257812 0.371094 L 2.28125 0.421875 C 2.308594 0.398438 2.332031 0.347656 2.355469 0.273438 C 2.382812 0.199219 2.480469 0.125 2.652344 0.0742188 C 2.679688 0.0742188 2.703125 0.0742188 2.730469 0.0976562 C 2.730469 0.0234375 2.730469 0 2.753906 0 L 2.804688 0 C 2.777344 -0.0234375 2.777344 -0.0507812 2.777344 -0.0976562 C 2.777344 -0.25 2.804688 -0.371094 2.878906 -0.472656 C 2.953125 -0.570312 3 -0.644531 3.027344 -0.71875 C 3.273438 -0.941406 3.449219 -1.089844 3.546875 -1.164062 C 3.648438 -1.242188 3.746094 -1.414062 3.871094 -1.6875 C 3.917969 -1.785156 3.96875 -1.910156 4.042969 -2.058594 C 4.117188 -2.207031 4.191406 -2.382812 4.292969 -2.554688 C 4.390625 -2.730469 4.515625 -2.925781 4.640625 -3.125 C 4.761719 -3.324219 4.910156 -3.496094 5.058594 -3.648438 C 5.058594 -3.671875 5.136719 -3.796875 5.285156 -3.992188 C 5.433594 -4.191406 5.554688 -4.367188 5.632812 -4.488281 C 5.679688 -4.5625 5.753906 -4.640625 5.855469 -4.714844 C 5.953125 -4.789062 6.027344 -4.910156 6.101562 -5.085938 C 6.128906 -5.109375 6.152344 -5.160156 6.203125 -5.234375 C 6.25 -5.308594 6.300781 -5.382812 6.351562 -5.480469 C 6.398438 -5.582031 6.449219 -5.679688 6.5 -5.78125 C 6.546875 -5.878906 6.574219 -5.929688 6.574219 -5.953125 C 6.546875 -5.953125 6.523438 -5.953125 6.523438 -5.929688 C 6.523438 -5.902344 6.523438 -5.878906 6.5 -5.855469 L 6.472656 -5.878906 L 6.5 -5.902344 C 6.472656 -5.929688 6.449219 -5.929688 6.425781 -5.929688 C 6.425781 -5.902344 6.398438 -5.855469 6.375 -5.78125 C 6.351562 -5.855469 6.324219 -5.902344 6.324219 -5.929688 C 6.324219 -5.953125 6.324219 -5.976562 6.351562 -6.003906 C 6.375 -6.027344 6.398438 -6.050781 6.425781 -6.078125 C 6.472656 -6.050781 6.546875 -6.003906 6.648438 -5.953125 C 6.648438 -5.976562 6.648438 -6.003906 6.671875 -6.050781 C 6.699219 -6.101562 6.699219 -6.152344 6.699219 -6.203125 L 6.699219 -6.25 C 6.796875 -6.324219 6.894531 -6.449219 6.96875 -6.597656 C 7.046875 -6.746094 7.144531 -6.894531 7.269531 -7.019531 C 7.34375 -7.046875 7.367188 -7.121094 7.367188 -7.21875 C 7.367188 -7.316406 7.441406 -7.367188 7.589844 -7.367188 C 7.566406 -7.34375 7.566406 -7.316406 7.566406 -7.316406 C 7.566406 -7.316406 7.566406 -7.292969 7.542969 -7.269531 L 7.8125 -7.542969 C 7.789062 -7.542969 7.765625 -7.515625 7.738281 -7.492188 L 7.714844 -7.515625 C 7.738281 -7.542969 7.765625 -7.566406 7.789062 -7.617188 C 7.8125 -7.664062 7.863281 -7.714844 7.914062 -7.765625 L 7.914062 -7.640625 C 7.9375 -7.664062 7.960938 -7.714844 7.960938 -7.789062 C 7.960938 -7.863281 7.988281 -7.914062 8.011719 -7.9375 L 8.039062 -7.914062 C 8.011719 -7.886719 7.988281 -7.863281 7.988281 -7.839844 C 8.0625 -7.914062 8.136719 -8.011719 8.1875 -8.113281 C 8.1875 -8.085938 8.1875 -8.085938 8.210938 -8.085938 C 8.234375 -8.085938 8.261719 -8.085938 8.261719 -8.113281 C 8.261719 -8.136719 8.261719 -8.160156 8.285156 -8.1875 C 8.382812 -8.285156 8.457031 -8.359375 8.535156 -8.410156 C 8.609375 -8.457031 8.65625 -8.484375 8.707031 -8.507812 C 8.757812 -8.535156 8.832031 -8.582031 8.90625 -8.632812 C 8.980469 -8.683594 9.105469 -8.78125 9.253906 -8.929688 C 9.277344 -8.90625 9.300781 -8.90625 9.328125 -8.90625 C 9.203125 -8.65625 9.078125 -8.433594 8.980469 -8.234375 C 8.878906 -8.039062 8.757812 -7.8125 8.632812 -7.566406 C 8.359375 -7.070312 8.113281 -6.625 7.886719 -6.25 C 7.664062 -5.878906 7.464844 -5.53125 7.292969 -5.210938 C 7.121094 -4.886719 6.96875 -4.589844 6.820312 -4.292969 C 6.671875 -3.992188 6.523438 -3.671875 6.398438 -3.347656 C 6.375 -3.324219 6.324219 -3.25 6.277344 -3.148438 C 6.226562 -3.050781 6.175781 -2.953125 6.128906 -2.851562 C 6.078125 -2.753906 6.027344 -2.628906 5.976562 -2.503906 C 5.929688 -2.382812 5.902344 -2.28125 5.902344 -2.207031 C 5.902344 -2.183594 5.902344 -2.183594 5.902344 -2.183594 C 5.902344 -2.183594 5.902344 -2.183594 5.902344 -2.15625 C 5.929688 -2.15625 5.929688 -2.15625 5.929688 -2.15625 C 5.929688 -2.15625 5.929688 -2.15625 5.953125 -2.15625 C 5.953125 -2.109375 5.929688 -2.082031 5.902344 -2.082031 L 5.878906 -2.082031 C 5.855469 -2.082031 5.804688 -2.007812 5.753906 -1.886719 C 5.707031 -1.761719 5.65625 -1.660156 5.632812 -1.585938 L 5.632812 -1.539062 C 5.632812 -1.511719 5.632812 -1.488281 5.632812 -1.488281 C 5.632812 -1.488281 5.632812 -1.464844 5.632812 -1.4375 L 5.632812 -1.414062 C 5.507812 -1.066406 5.382812 -0.621094 5.234375 -0.0507812 C 5.085938 0.519531 5.011719 1.042969 5.011719 1.539062 C 5.011719 1.5625 5.011719 1.585938 5.011719 1.613281 C 5.011719 1.636719 5.011719 1.660156 5.011719 1.6875 C 5.011719 1.710938 5.011719 1.761719 5.011719 1.8125 C 5.011719 1.859375 5.011719 1.910156 5.011719 1.933594 L 5.035156 2.207031 C 5.058594 2.382812 5.085938 2.578125 5.136719 2.777344 C 5.183594 2.976562 5.234375 3.175781 5.308594 3.347656 C 5.382812 3.523438 5.457031 3.621094 5.53125 3.621094 C 5.554688 3.621094 5.582031 3.621094 5.605469 3.597656 L 5.707031 3.648438 C 5.679688 3.671875 5.65625 3.695312 5.65625 3.722656 C 5.65625 3.746094 5.707031 3.769531 5.804688 3.769531 C 5.902344 3.769531 5.976562 3.769531 6.050781 3.769531 C 6.175781 3.769531 6.277344 3.769531 6.351562 3.746094 C 6.425781 3.722656 6.472656 3.722656 6.523438 3.722656 L 6.597656 3.722656 C 6.648438 3.722656 6.671875 3.695312 6.699219 3.648438 C 6.722656 3.597656 6.746094 3.570312 6.773438 3.570312 C 6.796875 3.570312 6.820312 3.570312 6.847656 3.597656 C 6.796875 3.597656 6.773438 3.597656 6.746094 3.621094 L 6.773438 3.648438 L 6.96875 3.546875 L 6.96875 3.570312 L 7.070312 3.472656 C 7.070312 3.546875 7.070312 3.597656 7.046875 3.597656 C 7.019531 3.597656 6.996094 3.621094 6.96875 3.648438 C 7.046875 3.648438 7.09375 3.597656 7.144531 3.523438 C 7.195312 3.449219 7.269531 3.398438 7.390625 3.398438 L 7.390625 3.273438 C 7.390625 3.199219 7.367188 3.175781 7.34375 3.199219 C 7.316406 3.226562 7.316406 3.226562 7.34375 3.199219 C 7.367188 3.175781 7.464844 3.101562 7.617188 2.976562 C 7.765625 2.851562 8.011719 2.628906 8.359375 2.28125 C 8.335938 2.28125 8.308594 2.257812 8.308594 2.234375 C 8.308594 2.207031 8.308594 2.183594 8.308594 2.15625 C 8.359375 2.109375 8.382812 2.082031 8.410156 2.082031 L 8.457031 2.109375 C 8.484375 2.082031 8.507812 2.035156 8.507812 1.984375 C 8.507812 1.933594 8.507812 1.886719 8.507812 1.859375 C 8.535156 1.859375 8.558594 1.910156 8.558594 1.984375 C 8.582031 1.910156 8.609375 1.886719 8.609375 1.886719 C 8.609375 1.886719 8.683594 1.8125 8.855469 1.636719 C 8.832031 1.636719 8.832031 1.636719 8.832031 1.613281 C 8.832031 1.585938 8.832031 1.5625 8.832031 1.539062 C 8.832031 1.511719 8.832031 1.488281 8.832031 1.464844 C 8.832031 1.4375 8.78125 1.414062 8.707031 1.390625 C 8.632812 1.363281 8.582031 1.339844 8.558594 1.316406 C 8.558594 1.289062 8.558594 1.289062 8.558594 1.289062 C 8.558594 1.289062 8.558594 1.265625 8.558594 1.242188 C 8.234375 1.488281 7.886719 1.738281 7.515625 1.960938 C 7.492188 1.960938 7.464844 1.933594 7.441406 1.910156 C 7.492188 1.886719 7.515625 1.835938 7.492188 1.761719 C 7.464844 1.6875 7.492188 1.636719 7.566406 1.613281 L 7.566406 1.5625 L 7.515625 1.613281 C 7.515625 1.539062 7.515625 1.488281 7.515625 1.4375 C 7.515625 1.390625 7.515625 1.339844 7.515625 1.289062 C 7.515625 1.214844 7.492188 1.164062 7.441406 1.117188 C 7.390625 1.066406 7.34375 1.015625 7.316406 0.96875 C 7.292969 0.992188 7.269531 1.015625 7.269531 1.042969 C 7.269531 1.066406 7.242188 1.089844 7.21875 1.117188 C 7.195312 1.117188 7.195312 1.089844 7.195312 1.066406 L 7.195312 1.042969 C 7.21875 1.015625 7.242188 0.992188 7.242188 0.96875 C 7.242188 0.941406 7.242188 0.917969 7.21875 0.894531 C 7.195312 0.867188 7.195312 0.84375 7.195312 0.820312 C 7.195312 0.792969 7.195312 0.792969 7.195312 0.792969 C 7.195312 0.792969 7.195312 0.792969 7.195312 0.769531 Z M 7.269531 1.390625 C 7.195312 1.464844 7.144531 1.511719 7.09375 1.539062 C 7.070312 1.511719 7.070312 1.488281 7.070312 1.464844 C 7.070312 1.4375 7.070312 1.414062 7.09375 1.414062 C 7.121094 1.414062 7.121094 1.390625 7.121094 1.363281 C 7.144531 1.363281 7.167969 1.363281 7.195312 1.363281 C 7.21875 1.363281 7.242188 1.363281 7.269531 1.363281 Z M 8.210938 1.835938 C 8.234375 1.859375 8.261719 1.886719 8.261719 1.910156 C 8.261719 1.933594 8.234375 1.960938 8.210938 1.984375 C 8.1875 2.007812 8.160156 2.035156 8.160156 2.058594 L 8.113281 2.007812 C 8.113281 1.984375 8.136719 1.960938 8.160156 1.933594 C 8.1875 1.910156 8.210938 1.886719 8.210938 1.859375 Z M 8.382812 1.4375 C 8.410156 1.511719 8.433594 1.5625 8.457031 1.585938 L 8.335938 1.585938 C 8.285156 1.585938 8.261719 1.5625 8.261719 1.539062 C 8.261719 1.511719 8.261719 1.488281 8.285156 1.464844 C 8.308594 1.4375 8.335938 1.414062 8.359375 1.390625 Z M 6.175781 -6.050781 C 6.277344 -6.050781 6.324219 -6.027344 6.324219 -6.003906 C 6.300781 -5.976562 6.277344 -5.953125 6.25 -5.953125 C 6.226562 -5.953125 6.203125 -5.929688 6.175781 -5.902344 C 6.152344 -5.902344 6.128906 -5.953125 6.128906 -6.050781 Z M 1.585938 0.570312 C 1.613281 0.546875 1.636719 0.546875 1.660156 0.546875 C 1.6875 0.546875 1.710938 0.519531 1.738281 0.496094 C 1.738281 0.519531 1.738281 0.546875 1.761719 0.546875 C 1.738281 0.570312 1.6875 0.59375 1.636719 0.644531 C 1.636719 0.621094 1.636719 0.59375 1.613281 0.570312 Z M 7.070312 1.164062 L 7.144531 1.164062 C 7.167969 1.164062 7.167969 1.214844 7.167969 1.289062 C 7.144531 1.265625 7.121094 1.242188 7.09375 1.242188 C 7.070312 1.242188 7.046875 1.242188 7.019531 1.214844 Z M 6.625 -6.671875 C 6.699219 -6.699219 6.746094 -6.722656 6.796875 -6.746094 C 6.746094 -6.671875 6.722656 -6.625 6.699219 -6.625 C 6.671875 -6.625 6.648438 -6.648438 6.625 -6.671875 Z M 5.234375 -0.695312 C 5.234375 -0.769531 5.234375 -0.820312 5.257812 -0.84375 C 5.285156 -0.820312 5.285156 -0.792969 5.285156 -0.746094 C 5.285156 -0.695312 5.257812 -0.667969 5.234375 -0.667969 Z M 9.328125 0.445312 L 9.351562 0.472656 C 9.375 0.445312 9.402344 0.421875 9.425781 0.398438 C 9.449219 0.371094 9.476562 0.347656 9.5 0.324219 C 9.527344 0.296875 9.550781 0.324219 9.574219 0.371094 C 9.601562 0.421875 9.625 0.472656 9.648438 0.519531 C 9.722656 0.445312 9.796875 0.347656 9.871094 0.199219 C 9.945312 0.0507812 9.972656 -0.0742188 9.972656 -0.171875 C 9.847656 0 9.722656 0.125 9.625 0.199219 C 9.527344 0.273438 9.402344 0.347656 9.277344 0.421875 Z M 9.105469 -4.835938 L 9.253906 -4.761719 L 9.253906 -5.210938 C 9.253906 -5.285156 9.253906 -5.359375 9.253906 -5.433594 C 9.253906 -5.507812 9.226562 -5.53125 9.203125 -5.53125 C 9.203125 -5.480469 9.203125 -5.433594 9.179688 -5.382812 C 9.152344 -5.332031 9.152344 -5.285156 9.152344 -5.234375 C 9.152344 -5.210938 9.152344 -5.160156 9.179688 -5.109375 C 9.203125 -5.058594 9.203125 -5.011719 9.203125 -4.984375 C 9.203125 -4.863281 9.179688 -4.8125 9.105469 -4.8125 Z M 9.03125 0.894531 L 9.03125 0.695312 C 8.953125 0.746094 8.90625 0.792969 8.855469 0.84375 C 8.804688 0.894531 8.757812 0.941406 8.730469 0.96875 C 8.730469 0.992188 8.730469 1.015625 8.757812 1.042969 C 8.832031 0.96875 8.878906 0.917969 8.90625 0.917969 C 8.929688 0.917969 8.953125 0.917969 8.980469 0.941406 Z M 8.582031 1.316406 L 8.558594 1.339844 C 8.632812 1.414062 8.707031 1.488281 8.757812 1.5625 C 8.757812 1.488281 8.757812 1.4375 8.757812 1.414062 C 8.757812 1.390625 8.707031 1.363281 8.609375 1.316406 Z M 8.433594 1.363281 L 8.484375 1.265625 L 8.535156 1.164062 C 8.484375 1.191406 8.433594 1.242188 8.382812 1.289062 L 8.261719 1.414062 C 8.308594 1.390625 8.359375 1.390625 8.410156 1.390625 Z M 9.128906 0.746094 C 9.105469 0.769531 9.078125 0.792969 9.078125 0.820312 C 9.078125 0.867188 9.078125 0.894531 9.105469 0.917969 C 9.128906 0.894531 9.152344 0.867188 9.179688 0.84375 C 9.179688 0.820312 9.152344 0.792969 9.128906 0.769531 Z M 8.160156 2.308594 L 8.359375 2.109375 C 8.234375 2.132812 8.160156 2.207031 8.160156 2.308594 Z M 8.160156 2.308594" transform="translate(59.163 16.813)"/></g></g></g></svg>